<?xml version="1.0" encoding="UTF-8"?>
<svg width="1440px" height="1024px" viewBox="0 0 1440 1024" version="1.1" xmlns="http://www.w3.org/2000/svg" xmlns:xlink="http://www.w3.org/1999/xlink">
    <!-- Generator: Sketch 61.1 (89650) - https://sketch.com -->
    <title>Home Copy 7</title>
    <desc>Created with Sketch.</desc>
    <defs>
        <polygon id="path-1" points="0.447107317 0.195431838 208.953653 0.195431838 208.953653 27 0.447107317 27"></polygon>
    </defs>
    <g id="Home-Copy-7" stroke="none" stroke-width="1" fill="none" fill-rule="evenodd">
        <rect fill="#FFFFFF" x="0" y="0" width="1440" height="1024"></rect>
        <rect id="Rectangle-Copy-5" fill="#E8F4FF" x="0" y="-2.27373675e-13" width="1440" height="1024"></rect>
        <g id="Group-43-Copy-3" opacity="0.590076265" transform="translate(910.000000, 592.000000)">
            <path d="M593.107564,129.421471 C614.722789,127.303296 635.13981,125.302445 652.532791,126.767411 C690.377661,129.957357 725.271398,160.043052 733.700036,196.749629 C740.676881,227.127048 727.227197,254.910655 696.796612,272.972218 C651.724478,299.728447 623.848795,358.247787 637.149496,398.207728 C648.053789,430.979193 684.522943,445.733486 739.830531,439.78801 C778.902133,435.589711 811.706938,444.081437 837.750446,465 C846.150556,452.535111 851.884819,437.457384 852,414.84872 C852.211314,370.535104 820.642752,344.790399 805.598632,314.368587 C800.736078,304.541904 797.578905,294.223728 797.788115,282.646697 C798.612277,235.174845 839.646018,128.48922 771.253279,71.3143509 C721.800409,29.9909134 624.913865,62.0489208 571.356036,77.1456739 C537.264272,86.7630761 503.939612,99.9033711 470,110.548152 C497.558698,138.772516 545.933818,134.044673 593.107564,129.421471" id="Fill-1" fill="#C4E5ED"></path>
            <path d="M449,624 L196.867775,624 C196.867775,624 95.7801373,606.075085 17.8564336,346.802173 C12.9933398,330.585905 9.18026812,315.408164 6.37915143,301.237191 C-32.0116913,107.851999 111.869904,96.6155802 197.794079,108.125129 C213.484139,133.259392 226.814028,173.720664 209.293567,229.953575 C198.066894,265.965378 175.743612,287.218662 152.072114,303.45081 C143.227818,309.545408 134.193186,314.922247 125.475781,320.108531 C82.3423906,345.769998 45.128461,367.92842 78.3009154,447.564715 C112.837447,530.491268 203.355073,533.482989 283.236069,536.119006 C335.73718,537.86894 381.10385,539.367976 400.416645,563.422425 L449,624 Z" id="Fill-3" fill="#C4E5ED"></path>
            <path d="M834,468.607246 C830.672877,473.119247 827.009553,477.313725 823.155926,481.489152 C820.333105,484.524671 817.42782,487.537964 814.503504,490.633813 C814.417868,490.719544 814.332232,490.8021 814.246595,490.891006 C813.450496,491.710216 812.648054,492.554827 811.867814,493.415314 C808.794427,496.663574 805.721041,500.016616 802.666685,503.620502 C802.225818,504.14759 801.78495,504.655626 801.363113,505.182714 C800.919073,505.709803 800.478206,506.236891 800.078571,506.763979 C799.637703,507.291067 799.193664,507.834031 798.794028,508.364294 C798.349989,508.910434 797.909122,509.481975 797.509486,510.028115 C796.224944,511.672884 794.981634,513.400208 793.741496,515.194213 C793.319658,515.781631 792.916851,516.375398 792.517216,516.985043 C790.877442,519.410918 789.297931,521.960627 787.759652,524.637346 C763.18525,567.556923 801.363113,625 801.363113,625 L453.026983,625 L453.131649,624.406232 L402.910807,561.803407 C382.402535,536.233284 336.143157,534.690122 282.595191,532.921519 C204.012925,530.327357 114.944989,527.377569 81.4453967,446.977582 C49.6902447,370.733971 83.7575727,350.45378 126.883302,324.801101 C135.830694,319.488942 145.098428,313.967218 154.19489,307.705665 C178.280849,291.115091 201.022004,269.339367 212.560682,232.281264 C229.868698,176.756025 217.803517,136.094036 202.433414,110 C209.002024,110.968445 215.1932,112.063899 220.857873,113.200631 C271.897016,123.447097 328.328066,131.985289 381.222659,128.209941 C386.887332,127.809862 392.510772,127.263723 398.067607,126.565172 C420.599429,123.742393 442.496909,118.217494 464.121622,111.600316 C493.098356,142.987459 544.958973,137.929319 592.062026,133.312535 C613.496436,131.226409 633.73194,129.245066 650.76719,130.677095 C686.290333,133.671336 720.316429,163.013632 728.233015,197.477573 C732.064439,214.236434 732.635347,245.858545 693.258578,269.234585 C646.599564,296.954338 617.857536,357.874292 631.733764,399.612684 C638.448272,419.807143 661.316295,452.461204 738.908988,444.113525 C764.260459,441.373302 786.855715,444.132577 806.583746,452.311968 C816.460448,456.401663 825.598142,461.840832 834,468.607246" id="Fill-5" fill="#C4E5ED"></path>
            <path d="M400.37468,564.561286 L449,625 L196.649989,625 C196.649989,625 95.4750335,607.119342 17.487196,348.437589 C12.6167265,332.258494 8.80036122,317.115544 6,302.977055 C47.5640915,284.887267 114.150458,265.596563 151.818809,305.188769 C142.966874,311.266228 133.924438,316.630742 125.196328,321.808306 C82.0288546,347.40778 44.7827804,369.515409 77.9807134,448.972324 C112.550252,531.705617 203.14289,534.690479 283.09606,537.320454 C335.642521,539.066377 381.045203,540.561977 400.37468,564.561286" id="Fill-7" fill="#B1DCE0"></path>
            <path d="M851,415.79432 C851,416.717714 850.976754,417.599998 850.954543,418.501256 C850.935505,419.048335 850.935505,419.573278 850.913295,420.117196 C850.872047,420.730683 850.849836,421.337847 850.808588,421.94501 C850.808588,422.194832 850.789551,422.447817 850.76734,422.703964 C850.726092,423.605222 850.662633,424.484344 850.576964,425.347654 C850.491295,426.457624 850.386588,427.551783 850.262843,428.623805 C850.199385,429.186696 850.113716,429.778048 850.050257,430.344101 C849.713926,432.902409 849.291926,435.359522 848.765219,437.71228 C848.492346,438.970879 848.219474,440.188368 847.87997,441.386882 C847.607098,442.477879 847.312015,443.546739 846.975684,444.596626 C846.363308,446.633152 845.668435,448.587459 844.910104,450.456383 C844.551562,451.401913 844.151773,452.325307 843.751983,453.248702 C843.329983,454.213206 842.888945,455.155574 842.425697,456.08213 C842.025907,456.879032 841.622944,457.653797 841.223155,458.412751 C841.204117,458.453861 841.181906,458.517107 841.140658,458.580354 C840.696447,459.399392 840.25541,460.196293 839.792161,460.974221 C839.665244,461.201907 839.519289,461.454892 839.370161,461.688903 C838.529334,463.092968 837.644085,464.459085 836.736626,465.799904 C835.949738,466.976283 835.121602,468.108389 834.287121,469.237333 C834.290294,469.240496 834.290294,469.240496 834.293467,469.243658 C834.245873,469.313229 834.191933,469.373313 834.144339,469.442883 C833.52879,470.268246 832.894203,471.074634 832.259616,471.881023 C831.980398,472.238364 831.70118,472.595705 831.415616,472.946721 C830.704878,473.832167 829.978276,474.708127 829.242156,475.571437 C829.061299,475.786474 828.877268,475.998349 828.696411,476.207061 C826.992546,478.183504 825.250605,480.140973 823.445205,482.073143 C820.643505,485.115284 817.737097,488.119477 814.789441,491.183754 C814.703772,491.265974 814.621276,491.351356 814.535607,491.436739 C813.736027,492.255777 812.933275,493.093788 812.155906,493.953936 C809.081333,497.185816 806.003587,500.525213 802.948052,504.117596 C802.529225,504.620403 802.085014,505.145346 801.643976,505.670289 C801.221976,506.195233 800.780938,506.720176 800.358938,507.245119 C799.9179,507.770062 799.4959,508.313979 799.073899,508.838922 C798.632862,509.386002 798.210861,509.933081 797.788861,510.495972 C796.503823,512.13721 795.263206,513.857506 794.019416,515.641048 C793.619626,516.229237 793.197626,516.817427 792.797836,517.427752 C791.154256,519.840594 789.574135,522.379927 788.035262,525.048916 C763.454543,567.790677 801.643976,625 801.643976,625 L453.173328,625 L453.278035,624.411811 L403.040971,562.060574 C382.52478,536.594504 336.244365,535.060784 282.67572,533.296216 C204.063108,530.715773 114.960776,527.774826 81.4482468,447.705175 C49.6840046,371.768661 83.7644886,351.570997 126.906872,326.022707 C135.857719,320.732164 145.125859,315.23291 154.225834,309 C162.757853,319.052979 169.601872,332.467491 174.047152,350.04044 C207.750057,483.290632 305.974574,566.405586 404.452927,512.681127 C502.928106,458.956668 599.236171,421.9039 647.851866,495.633122 C657.627675,510.495972 667.650974,525.172246 677.912242,539.718865 C684.883178,549.607403 688.611376,563.69865 698.618809,571.231269 C721.746325,588.680887 742.535389,544.927187 753.869109,531.553784 C774.829511,506.846668 797.284365,483.980015 806.866625,453.017853 C807.288626,451.673872 807.691588,450.307755 808.027919,448.922664 C808.827499,446.025989 809.500161,443.043932 810.026868,439.998629 C813.777276,418.608774 802.129435,398.284618 797.45253,378.045843 C792.924753,358.354149 795.409161,337.824442 802.992473,319.179471 C803.474759,317.980956 804.001466,316.785603 804.550384,315.590251 C819.612301,345.926276 851.208378,371.601059 851,415.79432" id="Fill-9" fill="#B1DCE0"></path>
            <path d="M155,291 C155,294.31281 152.315123,297 148.99851,297 C145.684877,297 143,294.31281 143,291 C143,287.68719 145.684877,285 148.99851,285 C152.315123,285 155,287.68719 155,291" id="Fill-23" fill="#FEFEFE"></path>
            <path d="M241,199.5 C241,201.986205 238.983176,204 236.5,204 C234.013795,204 232,201.986205 232,199.5 C232,197.016824 234.013795,195 236.5,195 C238.983176,195 241,197.016824 241,199.5" id="Fill-25" fill="#FEFEFE"></path>
            <path d="M745.377957,42.3709385 C674.910465,8.4487204 596.331676,30.0038597 527.832391,57.7012937 C490.131234,72.9428141 453.190014,91.5029503 412.948313,99.1617825 C370.668454,107.210854 326.999086,104.415729 285.898879,91.8868437 C281.991084,90.6970914 280.321766,96.7949686 284.213662,97.9815482 C321.237553,109.263573 360.245548,112.766204 398.665307,107.794625 C438.585863,102.626341 474.649498,86.6138614 511.434915,71.2486068 C583.256939,41.2446397 666.830964,11.5547671 742.182404,47.8279358 C745.835827,49.5855966 749.050457,44.14129 745.377957,42.3709385" id="Fill-30" fill="#C4E5ED"></path>
            <path d="M178.95029,76.8964895 C149.613202,74.8014006 119.396575,72.7642405 90.6681533,80.629674 C76.6911309,84.4561881 64.1258324,91.0664992 51.6688829,98.3944828 C39.8652142,105.333057 28.3196711,112.371397 18.8869337,122.479959 C16.0857931,125.47938 20.5663434,130.020348 23.3738574,127.011273 C32.8703295,116.835127 44.677185,109.877243 56.560522,102.932233 C69.0812063,95.6139041 81.8026548,89.3286375 95.9358272,85.8850966 C123.064507,79.2780037 151.394587,81.3376917 178.95029,83.3072684 C183.026125,83.6001302 183.007004,77.1861331 178.95029,76.8964895" id="Fill-32" fill="#C4E5ED"></path>
            <path d="M518.359767,33.490959 C488.642518,52.118099 455.653732,63.7455994 420.989894,67.5764398 C417.023822,68.0135156 416.982968,74.4186035 420.989894,73.978314 C456.800813,70.0189219 490.801544,58.2692974 521.518168,39.0186817 C524.94684,36.8686547 521.807295,31.3312906 518.359767,33.490959" id="Fill-34" fill="#C4E5ED"></path>
        </g>
        <g id="Group-43-Copy-4" opacity="0.747047061" transform="translate(-63.000000, -116.000000)">
            <path d="M368.378253,80.6819277 C381.788746,79.367022 394.45585,78.1249479 405.246784,79.0343588 C428.726454,81.014591 450.375187,99.6909764 455.604472,122.477426 C459.933039,141.334907 451.588601,158.582218 432.708893,169.794348 C404.745291,186.403891 387.450692,222.731114 395.702698,247.537165 C402.467927,267.880803 425.094077,277.03987 459.407947,273.349079 C483.648706,270.742888 504.001425,276.014322 520.159308,289 C525.370895,281.262134 528.92854,271.902289 529,257.867442 C529.131103,230.358748 509.545372,214.377132 500.211717,195.492094 C497.194897,189.391955 495.236127,182.986711 495.365925,175.800003 C495.87725,146.330761 521.335357,80.1032118 478.903212,44.6105994 C448.22172,18.9581274 388.111482,38.8588711 354.883195,48.230527 C333.732022,54.2007501 313.056775,62.3578898 292,68.9658816 C309.097936,86.4868034 339.110772,83.5518866 368.378253,80.6819277" id="Fill-1" fill="#C4E5ED"></path>
            <path d="M279,387 L122.329865,387 C122.329865,387 59.5159428,375.878954 11.0956458,215.019845 C8.07381246,204.958885 5.70444277,195.542252 3.96388252,186.750242 C-19.8914519,66.7694486 69.5138155,59.7981056 122.905452,66.9389046 C132.654955,82.5328019 140.937893,107.635942 130.051014,142.524184 C123.074974,164.866766 109.203714,178.052811 94.494699,188.123624 C88.9990229,191.904858 83.3850755,195.240778 77.9682469,198.458472 C51.1659844,214.379459 28.0419613,228.127074 48.6546891,277.535334 C70.1150283,328.984949 126.360947,330.841084 175.997468,332.476531 C208.620653,333.562232 236.810633,334.49227 248.811234,349.416225 L279,387 Z" id="Fill-3" fill="#C4E5ED"></path>
            <path d="M518,290.127595 C515.934139,292.922407 513.659526,295.52054 511.266752,298.106873 C509.51402,299.987126 507.710084,301.853613 505.894332,303.771236 C505.84116,303.824339 505.787987,303.875476 505.734814,303.930546 C505.240504,304.437978 504.742256,304.961145 504.257793,305.494146 C502.349481,307.506175 500.441169,309.583108 498.544674,311.815417 C498.270933,312.141905 497.997191,312.456592 497.735266,312.783079 C497.459555,313.109567 497.185814,313.436055 496.937675,313.762542 C496.663933,314.08903 496.388223,314.425351 496.140083,314.753806 C495.864372,315.092094 495.590631,315.446117 495.342491,315.784405 C494.5449,316.803204 493.77291,317.873139 493.002889,318.984377 C492.740964,319.348233 492.490855,319.716024 492.242716,320.093648 C491.224556,321.596277 490.243813,323.175612 489.288673,324.833618 C474.030057,351.418754 497.735266,387 497.735266,387 L281.448127,387 L281.513116,386.63221 L250.330239,347.854926 C237.596345,332.016345 208.873202,331.060483 175.624465,329.96498 C126.831555,328.35811 71.5279343,326.53096 50.7275339,276.729803 C31.0102826,229.503178 52.1631987,216.941274 78.9406124,201.051556 C84.4961823,197.761112 90.2506578,194.340859 95.8987877,190.462344 C110.854122,180.185853 124.974447,166.697589 132.138985,143.743152 C142.885793,109.349849 135.39434,84.163102 125.850813,68 C129.929361,68.5998718 133.773556,69.2784152 137.290836,69.982527 C168.981808,76.3293669 204.020694,81.6180723 236.863743,79.2795558 C240.381023,79.03174 243.872702,78.6934516 247.323024,78.2607572 C261.313371,76.5122786 274.909845,73.0900594 288.336955,68.9912635 C306.329045,88.4330088 338.530081,85.2999081 367.777075,82.4401916 C381.086022,81.1480089 393.650551,79.9207302 404.227994,80.8077537 C426.284847,82.6624392 447.412162,100.83757 452.327689,122.185137 C454.706678,132.565869 455.061163,152.153157 430.611535,166.632685 C401.640252,183.802784 383.793895,221.537668 392.409853,247.391157 C396.578992,259.899959 410.778092,280.126454 458.956561,274.955756 C474.697671,273.258414 488.727405,274.967557 500.976836,280.034015 C507.109429,282.567244 512.78316,285.93636 518,290.127595" id="Fill-5" fill="#C4E5ED"></path>
            <path d="M248.814982,350.468087 L279,388 L122.349316,388 C122.349316,388 59.5431924,376.896268 11.1308779,216.257162 C8.10744874,206.210085 5.73837322,196.806446 4,188.026568 C29.801637,176.792967 71.136289,164.813609 94.5195769,189.400022 C89.0245831,193.174071 83.4113326,196.505388 77.9932056,199.72061 C51.1962416,215.617659 28.0750894,229.346303 48.6832871,278.688353 C70.1429329,330.065004 126.379898,331.918578 176.012227,333.551769 C208.631362,334.635972 236.815871,335.564726 248.814982,350.468087" id="Fill-7" fill="#B1DCE0"></path>
            <path d="M529,258.239515 C529,258.812253 528.985553,259.359492 528.971749,259.918501 C528.959918,260.257828 528.959918,260.583426 528.946114,260.920792 C528.920479,261.30131 528.906676,261.677905 528.881041,262.0545 C528.881041,262.209453 528.869209,262.366367 528.855406,262.525243 C528.829771,263.084252 528.790332,263.62953 528.73709,264.165 C528.683848,264.853463 528.618775,265.532118 528.541869,266.197044 C528.502431,266.546179 528.449189,266.912966 528.40975,267.264063 C528.200726,268.850861 527.93846,270.374894 527.611121,271.834199 C527.441535,272.614849 527.271949,273.37 527.060953,274.113383 C526.891368,274.790077 526.707979,275.453041 526.498954,276.104236 C526.118373,277.367398 525.686521,278.579563 525.215231,279.738769 C524.992403,280.325237 524.743941,280.897976 524.495478,281.470714 C524.233212,282.06895 523.959114,282.653457 523.671213,283.228157 C523.42275,283.722437 523.172316,284.202988 522.923853,284.673732 C522.912022,284.69923 522.898218,284.738459 522.872583,284.777688 C522.596513,285.285699 522.322416,285.779979 522.034515,286.262492 C521.955638,286.403715 521.864929,286.560629 521.772248,286.705775 C521.249688,287.576651 520.699521,288.42399 520.13555,289.255637 C519.646513,289.985289 519.13184,290.687482 518.613223,291.387713 C518.615195,291.389674 518.615195,291.389674 518.617167,291.391636 C518.587588,291.434787 518.554066,291.472055 518.524487,291.515206 C518.141933,292.02714 517.747548,292.527305 517.353163,293.02747 C517.179633,293.249112 517.006104,293.470754 516.828631,293.688473 C516.386919,294.237674 515.935348,294.78099 515.477862,295.316461 C515.365462,295.449838 515.25109,295.581254 515.13869,295.710709 C514.079766,296.936604 512.997179,298.15073 511.875153,299.349165 C510.133943,301.236062 508.327659,303.099423 506.49574,305.00005 C506.442498,305.051047 506.391228,305.104006 506.337986,305.156965 C505.841061,305.664975 505.342163,306.184755 504.859042,306.718264 C502.948245,308.722848 501.035478,310.79412 499.136513,313.022306 C498.876219,313.334174 498.600149,313.659772 498.326052,313.985369 C498.063785,314.310967 497.789688,314.636565 497.527422,314.962162 C497.253324,315.28776 496.991058,315.625126 496.728792,315.950724 C496.454694,316.290052 496.192428,316.629379 495.930162,316.978514 C495.131532,317.996497 494.360509,319.063516 493.587514,320.169764 C493.339051,320.53459 493.076785,320.899417 492.828323,321.277973 C491.806865,322.774545 490.824846,324.349575 489.868462,326.005024 C474.591954,352.515736 498.326052,388 498.326052,388 L281.757337,388 L281.82241,387.635174 L250.60091,348.961622 C237.850439,333.166211 209.08793,332.214917 175.795908,331.120438 C126.939476,329.51991 71.5638579,327.695778 50.7363784,278.032324 C30.99543,230.932461 52.1758842,218.404796 78.9881583,202.558388 C84.5509608,199.276912 90.3109558,195.865982 95.9664388,192 C101.268947,198.235392 105.522391,206.555786 108.285059,217.455462 C129.230854,300.104316 190.275759,351.656629 251.478417,318.333864 C312.679104,285.011098 372.532966,262.029001 402.746812,307.759785 C408.822315,316.978514 415.051628,326.08152 421.428836,335.104106 C425.761157,341.237503 428.07817,349.977644 434.297623,354.649774 C448.67099,365.472955 461.591047,338.334584 468.634766,330.039689 C481.661307,314.715022 495.616626,300.531908 501.571841,281.327529 C501.834107,280.493921 502.084542,279.646582 502.293566,278.787475 C502.790491,276.990803 503.20854,275.141173 503.535879,273.252314 C505.866696,259.985189 498.627756,247.379067 495.721138,234.825903 C492.9072,222.612067 494.451218,209.878451 499.16412,198.313849 C499.463853,197.570466 499.791192,196.829045 500.132336,196.087624 C509.493067,214.90364 529.129503,230.828505 529,258.239515" id="Fill-9" fill="#B1DCE0"></path>
            <path d="M440,151.5 C440,153.432473 438.432083,155 436.499131,155 C434.566178,155 433,153.432473 433,151.5 C433,149.567527 434.566178,148 436.499131,148 C438.432083,148 440,149.567527 440,151.5" id="Fill-11" fill="#FEFEFE"></path>
            <path d="M438,179.5 C438,181.432473 436.432083,183 434.499131,183 C432.566178,183 431,181.432473 431,179.5 C431,177.567527 432.566178,176 434.499131,176 C436.432083,176 438,177.567527 438,179.5" id="Fill-13" fill="#FEFEFE"></path>
            <path d="M465,150.5 C465,152.432473 463.432473,154 461.5,154 C459.567527,154 458,152.432473 458,150.5 C458,148.567527 459.567527,147 461.5,147 C463.432473,147 465,148.567527 465,150.5" id="Fill-15" fill="#FEFEFE"></path>
            <path d="M260,379.5 C260,381.432473 258.432083,383 256.499131,383 C254.566178,383 253,381.432473 253,379.5 C253,377.567527 254.566178,376 256.499131,376 C258.432083,376 260,377.567527 260,379.5" id="Fill-17" fill="#FEFEFE"></path>
            <path d="M264,334.5 C264,336.432473 262.432083,338 260.499131,338 C258.566178,338 257,336.432473 257,334.5 C257,332.567527 258.566178,331 260.499131,331 C262.432083,331 264,332.567527 264,334.5" id="Fill-19" fill="#FEFEFE"></path>
            <path d="M281,360.000778 C281,361.105406 280.103851,362 278.999222,362 C277.894594,362 277,361.105406 277,360.000778 C277,358.894594 277.894594,358 278.999222,358 C280.103851,358 281,358.894594 281,360.000778" id="Fill-21" fill="#FEFEFE"></path>
            <path d="M96,180.5 C96,182.432473 94.4338217,184 92.4991309,184 C90.5661783,184 89,182.432473 89,180.5 C89,178.567527 90.5661783,177 92.4991309,177 C94.4338217,177 96,178.567527 96,180.5" id="Fill-23" fill="#FEFEFE"></path>
            <path d="M150,124 C150,125.65747 148.655451,127 147,127 C145.34253,127 144,125.65747 144,124 C144,122.344549 145.34253,121 147,121 C148.655451,121 150,122.344549 150,124" id="Fill-25" fill="#FEFEFE"></path>
            <g id="Group-38" transform="translate(82.000000, 375.000000)">
                <mask id="mask-2" fill="white">
                    <use xlink:href="#path-1"></use>
                </mask>
                <g id="Clip-37"></g>
                <path d="M1.05003744,3.54533824 C26.1630456,27.5336471 62.8973839,26.7990882 95.2262763,26.9956324 C132.540796,27.2239412 169.804181,19.0743088 207.0774,22.5743824 C209.586931,22.8086471 209.571197,18.8539412 207.0774,18.6196765 C172.144574,15.3379853 137.398587,22.7848235 102.483462,23.0429118 C69.4367176,23.2851176 29.6205339,25.3954853 3.81917484,0.750044118 C1.99012812,-0.999 -0.786876149,1.79232353 1.05003744,3.54533824" id="Fill-36" fill="#C4E5ED" mask="url(#mask-2)"></path>
            </g>
            <path d="M309.885272,398 L369.113992,398 C371.625727,398 371.63161,394 369.113992,394 L309.885272,394 C307.373537,394 307.369615,398 309.885272,398" id="Fill-39" fill="#C4E5ED"></path>
            <path d="M402.888418,396.591646 C417.190821,396.619081 431.49126,396.646517 445.793663,396.673953 C459.245971,396.699429 473.030072,397.596973 486.437225,396.29965 C496.01797,395.370751 505.500551,392.278341 511.649505,384.492445 C517.299788,377.337572 519.170782,368.248474 517.297825,359.402378 C516.779522,356.946872 513.008086,357.985514 513.528351,360.441021 C515.807705,371.209584 511.239182,382.558219 501.546531,388.121813 C492.44286,393.348339 481.173705,392.832937 471.029502,392.817259 C448.316462,392.783944 425.601458,392.731032 402.888418,392.689879 C400.371509,392.683999 400.369546,396.587726 402.888418,396.591646" id="Fill-41" fill="#C4E5ED"></path>
        </g>
    </g>
</svg>