<svg id="drink" xmlns="http://www.w3.org/2000/svg" width="208.702" height="192.06" viewBox="0 0 208.702 192.06">
  <path id="background" d="M131.847,152.123c-15.29,10.034-30.241,21.209-24.783,42.586,1.992,7.805,6.475,14.813,11.305,21.172,6.9,9.085,9.8,19.606,3.031,29.38-6.282,9.064-16.427,14.167-24.19,21.726-13.481,13.11,15.91,20.118,24.264,22.068,8.6,2,17.346,3.341,26.095,4.486,30.655,4,62.724,3.709,92.076-6.987a142.933,142.933,0,0,0,34.126-17.431c6.507-4.645,14.331-10.956,15.611-19.4,1.015-6.7-3.709-17.606-9.141-21.726a504.155,504.155,0,0,1-38.664-32.531c-9.74-9.083-17.376-18.965-25.3-29.608-14.6-19.588-38.3-33.914-63.588-25.9a39.3,39.3,0,0,0-10.511,5.347C138.868,147.587,135.35,149.825,131.847,152.123Z" transform="translate(-87.272 -120.762)" fill="#d1edf0"/>
  <path id="Path_6845" data-name="Path 6845" d="M261.859,726.269a5.893,5.893,0,0,0,.2-1.534c0-8.15-17.121-14.755-38.24-14.755s-38.243,6.605-38.243,14.755a6.02,6.02,0,0,0,.374,2.037C195.759,728.635,229.236,733.889,261.859,726.269Z" transform="translate(-154.79 -541.428)" fill="#c68f6a"/>
  <path id="Path_6846" data-name="Path 6846" d="M321.943,477.2c0,2.175-2.12,3.94-4.724,3.94h0c-2.607,0-4.719-1.765-4.719-3.94v-79.7c0-2.175,2.12-3.937,4.719-3.937h0c2.61,0,4.724,1.762,4.724,3.937Z" transform="translate(-248.083 -308.851)" fill="#c68f6a"/>
  <path id="Path_6847" data-name="Path 6847" d="M94.75,369.478a10.489,10.489,0,0,0,10.489,10.481h102.8A10.492,10.492,0,0,0,218.53,369.47v-1.06H94.75Z" transform="translate(-88.026 -290.357)" fill="#6b4125"/>
  <path id="Path_6848" data-name="Path 6848" d="M115.343,114.488V97.052a3.709,3.709,0,1,0-7.4,0v17.436A9.652,9.652,0,0,0,102,123.407v33.975c0,5.331,4.321,5.932,9.655,5.932s9.65-.6,9.65-5.932V123.407a9.652,9.652,0,0,0-5.961-8.918Z" transform="translate(-93.355 -87.963)" fill="#661054"/>
  <path id="Path_6849" data-name="Path 6849" d="M125.6,81.731l-1.092-7.307a11.413,11.413,0,0,1,7.35.032L130.6,81.7A11.373,11.373,0,0,1,125.6,81.731Z" transform="translate(-109.901 -73.816)" fill="#a65533"/>
  <path id="Path_6850" data-name="Path 6850" d="M118.225,205.433c-1.574-2.811-4.059-4.623-6.857-4.623s-5.352,1.855-6.926,4.737c-1.134-.074-2.12-.159-2.782-.23v14.657c.747.077,1.871.175,3.206.265,1.59,2.467,3.908,4.027,6.5,4.027,2.636,0,4.994-1.616,6.579-4.152.991-.066,2.12-.148,3.179-.244V205.206C120.156,205.293,119.133,205.365,118.225,205.433Z" transform="translate(-93.105 -167.163)" fill="#f2f2f2"/>
  <path id="Path_6851" data-name="Path 6851" d="M131.808,97.052a3.709,3.709,0,1,0-7.4,0v2.631h7.4Z" transform="translate(-109.82 -87.963)" fill="#51044a"/>
  <path id="Path_6852" data-name="Path 6852" d="M128.512,95.042a2,2,0,0,1-1.99,2.006l-7.154.037a2,2,0,0,1-2.008-1.99h0a2,2,0,0,1,1.99-2.006l7.154-.04A2,2,0,0,1,128.512,95.042Z" transform="translate(-104.645 -87.954)" fill="#7a1b68"/>
  <path id="Path_6853" data-name="Path 6853" d="M787.152,393.7c-.57,2.755-2.766,4.631-4.912,4.189h0c-2.149-.44-3.444-3.028-2.864-5.787l12.574-61.3c.567-2.755,2.766-4.631,4.912-4.2h0c2.146.442,3.428,3.034,2.864,5.789Z" transform="translate(-591.157 -259.584)" fill="#af662f"/>
  <rect id="Rectangle_404" data-name="Rectangle 404" width="8.065" height="53.917" transform="translate(138.657 136.792)" fill="#af662f"/>
  <rect id="Rectangle_405" data-name="Rectangle 405" width="8.062" height="53.917" transform="translate(182.259 136.792)" fill="#af662f"/>
  <path id="Path_6854" data-name="Path 6854" d="M642.932,577.786a4.992,4.992,0,0,1-4.989,4.992H585.332a4.994,4.994,0,0,1-4.992-4.992h0a4.992,4.992,0,0,1,4.992-4.986h52.611A4.989,4.989,0,0,1,642.932,577.786Z" transform="translate(-444.958 -440.594)" fill="#af662f"/>
  <path id="Path_6855" data-name="Path 6855" d="M506.928,551.271c-.228-.909-3.63-55.788-3.63-55.788s-.151-9.827,4.311-11.128c3.081-.888,9.748-1.59,24.717-2.04s49.662,0,49.662,0-2.946,20.862-7.48,23.358c-3.108,1.706-48.078,1.359-48.078,1.359l-5.893,44.239Z" transform="translate(-388.328 -373.936)"/>
  <path id="Path_6856" data-name="Path 6856" d="M489.038,173.865l-.681-9.475-11.737,1.052.7,9.26Z" transform="translate(-350.339 -120.834)" fill="#ed7e69"/>
  <path id="Path_6857" data-name="Path 6857" d="M358.461,243.19a49.4,49.4,0,0,1,6.173-9.382c2.763-3.386,5.858-6.836,9.575-9.215a33.041,33.041,0,0,0,4.295-3.063l18.12.919c7.89.395,13.987,6.467,13.64,13.571l-.472,9.228c-.358,7.1-7.034,12.524-14.922,12.135L371.166,256.2c-4.653-.238-11.287-1.163-15.876-3.338C356.363,249.641,356.954,246.295,358.461,243.19Z" transform="translate(-279.535 -182.393)" fill="#fcc6a2"/>
  <path id="Path_6858" data-name="Path 6858" d="M478.514,342.732a.91.91,0,0,1,.813.723,8.479,8.479,0,0,1-.45,2.734l-1.717-.093a7.419,7.419,0,0,0,.583-2.869C477.735,342.891,478.082,342.671,478.514,342.732Z" transform="translate(-369.116 -271.475)" fill="#ef957d"/>
  <path id="Path_6859" data-name="Path 6859" d="M412.1,285.531s-4.769,2.385-5.076,11.679c.069,1.274-3.179-3.46-.7-8.121S412.728,284.108,412.1,285.531Z" transform="translate(-316.358 -228.889)" fill="#1d1d1b"/>
  <path id="Path_6860" data-name="Path 6860" d="M432.753,305.123s3.783-2.26,3.471-9.952c-.135-1.06,2.838,2.65,1.084,6.658S432.327,306.339,432.753,305.123Z" transform="translate(-336.446 -236.388)" fill="#cc7462"/>
  <path id="Path_6861" data-name="Path 6861" d="M412.033,246.316s.231-5.651.225-9.072a10.5,10.5,0,0,0-5.4-8.82c-5.265-1.7-18.785-2.6-18.785-2.6-1.261,3.807-9.247,5.426-9.247,5.426-.6,6.955-5.951,7.339-5.951,7.339a.819.819,0,0,1,.938.986c-.506,1.643-3.272,1.478-3.272,1.478a3.661,3.661,0,0,1,1.59,2.53c.265,2.353-3.556,5.1-3.556,5.1l-7.2-1.354a26.787,26.787,0,0,1,1.558-4.141,49.4,49.4,0,0,1,6.173-9.382c2.763-3.386,5.858-6.836,9.575-9.215a33.039,33.039,0,0,0,4.295-3.063l18.12.919c7.89.395,13.987,6.467,13.64,13.571l-.472,9.228a12.148,12.148,0,0,1-4.2,8.508A20.32,20.32,0,0,0,412.033,246.316Z" transform="translate(-284.012 -182.393)" fill="#ef957d"/>
  <path id="Path_6862" data-name="Path 6862" d="M333.8,141.551s-3.794,8.168-10.333,7.029c0,0,1.481,7.649-5.938,9.2,0,0,.962,1.722,1.934,1.274s.734.424-.795.962S316,158.587,316,158.587a2.93,2.93,0,0,1-1.15,2.689s4.435,1.338,3.023,5.339-5.434,3.421-4.321,5.715a4.177,4.177,0,0,1-2.019,4.329c-2.578,1.386-11.777-.686-14.138-8.29,0,0-2.1,1.908-.66,3.868s-1.727,1.516-2.34-.429.978-4.308,2.194-5.235a4.487,4.487,0,0,1-3.807-2.22,4.027,4.027,0,0,1,.236-4.74s-9.008-8.73.53-18.491c0,0-2.665-3.582-.848-5.22,1.206-1.033.509,3.285,1.971,4.027l.946-.551s-1.916-2.485-.265-7.077,5.845-10.018,12.561-9.9c0,0,5.209-9.239,14.784-6.907,2.959,1.145,7.9,2.567,8.213-2.022.156-2.62,3.622-1.121,2.671.758a11.128,11.128,0,0,1-2.043,2.893s3.052-1.521,5.5-.448S339.26,119,339.26,119a11.9,11.9,0,0,1,7.707,1.113c2.785,1.4,4.631,5.731,3.879,8.4,0,0,6.308,4.557,3.786,9.188a2.7,2.7,0,0,0,2.875-.991c1.113-1.59,3.821.567,2.591,2.872-1.259,2.361-2.294,3.3-5.132,4.388C354.961,143.962,341.245,140.21,333.8,141.551Z" transform="translate(-230.93 -101.932)" fill="#1d1d1b"/>
  <path id="Path_6863" data-name="Path 6863" d="M454.462,206.388s-3.073-3.158-.795-5.662c1.478-1.637,6.081-2.21,8.974,1.1s-.578,6.314-2.565,6.536S454.462,206.388,454.462,206.388Z" transform="translate(-351.229 -166.138)" fill="#ef957d"/>
  <path id="Path_6864" data-name="Path 6864" d="M572.509,245.309s9.591,9.035,10.206,21.771c.641,13.314.49,29.468.49,29.468l49.172.013s-.678-23.581-9.3-41.5-18.591-28.119-47.622-25.17C572.284,231.935,570.925,239.639,572.509,245.309Z" transform="translate(-438.715 -188.169)" fill="#8db8e9"/>
  <path id="Path_6865" data-name="Path 6865" d="M214.506,303.3a1.407,1.407,0,0,1-1.41,1.407h0a1.41,1.41,0,0,1-1.407-1.41v-8.431a1.41,1.41,0,0,1,1.41-1.4h0a1.41,1.41,0,0,1,1.407,1.407Z" transform="translate(-173.982 -235.265)" fill="#f2f2f2"/>
  <path id="Path_6866" data-name="Path 6866" d="M182.323,226.53l-1.6,11.064a9.726,9.726,0,1,0,19.451.016l-1.265-11.056c-2.6.085-5.336.132-8.16.13C187.823,226.681,185,226.625,182.323,226.53Z" transform="translate(-151.218 -186.068)" fill="#f2f2f2"/>
  <path id="Path_6867" data-name="Path 6867" d="M199.74,330.764a5.529,5.529,0,0,1-2.726-.024l-5.333,5.829a21.148,21.148,0,0,0,13.128-.114Z" transform="translate(-159.274 -262.668)" fill="#f2f2f2"/>
  <path id="Path_6868" data-name="Path 6868" d="M195.464,351.994a16.706,16.706,0,0,1-6.218-.994.766.766,0,0,1,.607-1.407h0a16.762,16.762,0,0,0,6.383.856l.366-.013a15.855,15.855,0,0,0,5.829-.978.769.769,0,1,1,.53,1.444,17.029,17.029,0,0,1-6.287,1.06H196.3C195.994,351.989,195.729,351.994,195.464,351.994Z" transform="translate(-157.144 -276.392)" fill="#d4f2f9"/>
  <path id="Path_6869" data-name="Path 6869" d="M203.03,223.978c0,.493-3.709.89-8.282.89s-8.288-.4-8.288-.89,3.709-.888,8.288-.888S203.03,223.49,203.03,223.978Z" transform="translate(-155.437 -183.54)" fill="#bde0e5"/>
  <path id="Path_6870" data-name="Path 6870" d="M195.308,271.163c3.4.217,9.183-1.881,8.086-9.673H188.2C187.807,263.583,187.1,270.633,195.308,271.163Z" transform="translate(-156.562 -211.766)" fill="#872e7a"/>
  <path id="Path_6871" data-name="Path 6871" d="M203.983,259.721c0,.392-3.415.713-7.623.713s-7.62-.321-7.62-.713,3.415-.721,7.62-.721S203.983,259.329,203.983,259.721Z" transform="translate(-157.113 -209.935)" fill="#872e7a"/>
  <path id="Path_6872" data-name="Path 6872" d="M683.63,587.185s.315,6.512,2.838,11.239,6.825,5.461,11.128,5.776c2,0,5.254-2.31,6.513-4.2,0,0,.106-1.576-1.365-1.16s-4.833,1.16-4.833,1.16-2.835-1.367-3.884-3.153c1.153.315,3.569.315,4.724-1.155.421-.946-.106-1.576-1.786-1.576s-2.2-3.044-3.36-7.246Z" transform="translate(-520.882 -450.936)" fill="#fcc6a2"/>
  <path id="Path_6873" data-name="Path 6873" d="M628.818,259.935s-10.084-4.2-12.188,8.4c.419,6.3,5.461,15.963,10.5,34.87s6.722,43.7,6.722,43.7l11.345-.633s-1.155-27.624-3.987-48.732C637.32,268.561,633.438,262.036,628.818,259.935Z" transform="translate(-471.633 -210.128)" fill="#a2cbf4"/>
  <path id="Path_6874" data-name="Path 6874" d="M204.7,356.639a4.369,4.369,0,0,0-4.372-4.369H73.739a4.369,4.369,0,0,0-4.369,4.369h0a4.366,4.366,0,0,0,4.369,4.369H200.324A4.369,4.369,0,0,0,204.7,356.639Z" transform="translate(-69.37 -278.493)" fill="#c68f6a"/>
  <path id="Path_6875" data-name="Path 6875" d="M448.893,743.123s-19.659,6.359-23.4,10.105c-2.5,2.493-1.667,4.992,9.973,4.573s27.852.419,30.342-2.493S462.5,743.12,462.5,743.12Z" transform="translate(-330.293 -565.787)" fill="#1d6082"/>
</svg>
