<svg xmlns="http://www.w3.org/2000/svg" xmlns:xlink="http://www.w3.org/1999/xlink" width="1440" height="1024" viewBox="0 0 1440 1024">
  <defs>
    <clipPath id="clip-path">
      <path id="Clip_28" data-name="Clip 28" d="M0,0H212.764V48.727H0Z" transform="translate(0.207 0.247)" fill="none"/>
    </clipPath>
    <clipPath id="clip-path-2">
      <path id="Clip_37" data-name="Clip 37" d="M0,0H336.2V42.689H0Z" transform="translate(0.721 0.311)" fill="none"/>
    </clipPath>
    <clipPath id="clip-path-3">
      <path id="Clip_28-2" data-name="Clip 28" d="M0,0H131.854V29.833H0Z" transform="translate(0.128 0.151)" fill="none"/>
    </clipPath>
    <clipPath id="clip-path-4">
      <path id="Clip_37-2" data-name="Clip 37" d="M0,0H208.507V26.8H0Z" transform="translate(0.447 0.195)" fill="none"/>
    </clipPath>
    <clipPath id="clip-Home_Copy_6_1">
      <rect width="1440" height="1024"/>
    </clipPath>
  </defs>
  <g id="Home_Copy_6_1" data-name="Home Copy 6 – 1" clip-path="url(#clip-Home_Copy_6_1)">
    <rect width="1440" height="1024" fill="#fff"/>
    <rect id="Rectangle_Copy_5" data-name="Rectangle Copy 5" width="1440" height="1024" fill="#e8f4ff"/>
    <g id="Group_43_Copy_3" data-name="Group 43 Copy 3" transform="translate(910 592)" opacity="0.59">
      <path id="Fill_1" data-name="Fill 1" d="M123.108,78.421c21.615-2.118,42.032-4.119,59.425-2.654,37.845,3.19,72.739,33.276,81.167,69.982,6.977,30.377-6.473,58.161-36.9,76.223-45.072,26.756-72.948,85.276-59.647,125.236,10.9,32.771,47.373,47.526,102.681,41.58,39.072-4.2,71.876,4.293,97.92,25.212,8.4-12.465,14.134-27.543,14.248-50.151.212-44.314-31.356-70.058-46.4-100.48-4.863-9.827-8.02-20.145-7.811-31.722.824-47.472,41.858-154.157-26.535-211.332-49.453-41.323-146.339-9.265-199.9,5.831C67.264,35.763,33.94,48.9,0,59.548c27.559,28.224,75.934,23.5,123.108,18.873" transform="translate(470 51)" fill="#c4e5ed"/>
      <path id="Fill_3" data-name="Fill 3" d="M449,519H196.868S95.78,501.075,17.856,241.8q-7.295-24.324-11.477-45.565C-32.012,2.852,111.87-8.384,197.794,3.125c15.69,25.134,29.02,65.6,11.5,121.828-11.227,36.012-33.55,57.265-57.221,73.5-8.844,6.095-17.879,11.471-26.6,16.658C82.342,240.77,45.128,262.928,78.3,342.565c34.537,82.927,125.054,85.918,204.935,88.554,52.5,1.75,97.868,3.249,117.181,27.3Z" transform="translate(0 105)" fill="#c4e5ed"/>
      <path id="Fill_5" data-name="Fill 5" d="M765,358.607a152.673,152.673,0,0,1-10.844,12.882c-2.823,3.035-5.728,6.049-8.652,9.145-.086.086-.171.168-.257.257-.8.819-1.6,1.664-2.379,2.524-3.073,3.248-6.147,6.6-9.2,10.205-.441.527-.882,1.035-1.3,1.562-.444.527-.885,1.054-1.285,1.581-.441.527-.885,1.07-1.285,1.6-.444.546-.885,1.118-1.285,1.664-1.285,1.645-2.528,3.372-3.768,5.166-.422.587-.825,1.181-1.224,1.791q-2.46,3.639-4.758,7.652C694.185,457.557,732.363,515,732.363,515H384.027l.1-.594-50.221-62.6C313.4,426.233,267.143,424.69,213.6,422.922c-78.582-2.594-167.65-5.544-201.15-85.944C-19.31,260.734,14.758,240.454,57.883,214.8c8.947-5.312,18.215-10.834,27.312-17.1,24.086-16.591,46.827-38.366,58.366-75.424C160.869,66.756,148.8,26.094,133.433,0c6.569.968,12.76,2.064,18.424,3.2C202.9,13.447,259.328,21.985,312.223,18.21q8.5-.6,16.845-1.645C351.6,13.742,373.5,8.217,395.122,1.6c28.977,31.387,80.837,26.329,127.94,21.712,21.434-2.086,41.67-4.067,58.705-2.635,35.523,2.994,69.549,32.337,77.466,66.8,3.831,16.759,4.4,48.381-34.974,71.757-46.659,27.72-75.4,88.64-61.525,130.378,6.714,20.194,29.583,52.849,107.175,44.5q38.027-4.11,67.675,8.2A111.576,111.576,0,0,1,765,358.607" transform="translate(69 110)" fill="#c4e5ed"/>
      <path id="Fill_7" data-name="Fill 7" d="M394.375,282.561,443,343H190.65S89.475,325.119,11.487,66.438Q4.181,42.169,0,20.977C41.564,2.887,108.15-16.4,145.819,23.189c-8.852,6.077-17.894,11.442-26.622,16.62-43.167,25.6-80.414,47.707-47.216,127.164C106.55,249.706,197.143,252.69,277.1,255.32c52.546,1.746,97.949,3.242,117.279,27.241" transform="translate(6 282)" fill="#b1dce0"/>
      <path id="Fill_9" data-name="Fill 9" d="M782,106.794c0,.923-.022,1.806-.044,2.707-.019.547-.019,1.072-.041,1.616-.041.613-.063,1.221-.1,1.828,0,.25-.019.5-.041.759-.041.9-.1,1.78-.19,2.644-.086,1.11-.19,2.2-.314,3.276-.063.563-.149,1.154-.213,1.72-.336,2.558-.758,5.015-1.285,7.368-.273,1.259-.546,2.476-.885,3.675-.273,1.091-.568,2.16-.9,3.21-.612,2.037-1.307,3.991-2.066,5.86-.359.946-.758,1.869-1.158,2.792q-.633,1.447-1.326,2.833c-.4.8-.8,1.572-1.2,2.331a1.136,1.136,0,0,1-.082.168c-.444.819-.885,1.616-1.349,2.394-.127.228-.273.481-.422.715-.841,1.4-1.726,2.77-2.634,4.111-.787,1.176-1.615,2.308-2.45,3.437l.006.006c-.048.07-.1.13-.149.2-.616.825-1.25,1.632-1.885,2.438-.279.357-.558.715-.844,1.066q-1.066,1.328-2.173,2.625c-.181.215-.365.427-.546.636-1.7,1.976-3.446,3.934-5.251,5.866-2.8,3.042-5.708,6.046-8.656,9.111-.086.082-.168.168-.254.253-.8.819-1.6,1.657-2.38,2.517-3.075,3.232-6.152,6.571-9.208,10.164-.419.5-.863,1.028-1.3,1.553-.422.525-.863,1.05-1.285,1.575-.441.525-.863,1.069-1.285,1.594-.441.547-.863,1.094-1.285,1.657-1.285,1.641-2.526,3.362-3.769,5.145-.4.588-.822,1.176-1.222,1.787-1.644,2.413-3.224,4.952-4.763,7.621C694.455,258.791,732.644,316,732.644,316H384.173l.1-.588-50.237-62.351c-20.516-25.466-66.8-27-120.365-28.764-78.613-2.58-167.715-5.521-201.227-85.591C-19.316,62.769,14.764,42.571,57.907,17.023,66.858,11.732,76.126,6.233,85.226,0c8.532,10.053,15.376,23.467,19.821,41.04,33.7,133.25,131.927,216.365,230.406,162.641s194.783-90.777,243.4-17.048q14.664,22.294,30.06,44.086c6.971,9.889,10.7,23.98,20.707,31.512,23.128,17.45,43.917-26.3,55.25-39.677,20.96-24.707,43.415-47.574,53-78.536.422-1.344.825-2.71,1.161-4.1.8-2.9,1.472-5.879,2-8.924,3.75-21.39-7.9-41.714-12.574-61.953-4.528-19.692-2.043-40.221,5.54-58.866.482-1.2,1.009-2.394,1.558-3.589C750.612,36.926,782.208,62.6,782,106.794" transform="translate(69 309)" fill="#b1dce0"/>
      <path id="Fill_11" data-name="Fill 11" d="M12,6A6,6,0,1,1,6,0a6,6,0,0,1,6,6" transform="translate(697 239)" fill="#fefefe"/>
      <path id="Fill_13" data-name="Fill 13" d="M12,6A6,6,0,1,1,6,0a6,6,0,0,1,6,6" transform="translate(693 284)" fill="#fefefe"/>
      <path id="Fill_15" data-name="Fill 15" d="M12,6A6,6,0,1,1,6,0a6,6,0,0,1,6,6" transform="translate(737 236)" fill="#fefefe"/>
      <path id="Fill_17" data-name="Fill 17" d="M12,6A6,6,0,1,1,6,0a6,6,0,0,1,6,6" transform="translate(407 605)" fill="#fefefe"/>
      <path id="Fill_19" data-name="Fill 19" d="M12,6A6,6,0,1,1,6,0a6,6,0,0,1,6,6" transform="translate(413 534)" fill="#fefefe"/>
      <path id="Fill_21" data-name="Fill 21" d="M7,3.5A3.5,3.5,0,1,1,3.5,0,3.5,3.5,0,0,1,7,3.5" transform="translate(446 577)" fill="#fefefe"/>
      <path id="Fill_23" data-name="Fill 23" d="M12,6A6,6,0,1,1,6,0a6,6,0,0,1,6,6" transform="translate(143 285)" fill="#fefefe"/>
      <path id="Fill_25" data-name="Fill 25" d="M9,4.5A4.5,4.5,0,1,1,4.5,0,4.5,4.5,0,0,1,9,4.5" transform="translate(232 195)" fill="#fefefe"/>
      <g id="Group_29" data-name="Group 29" transform="translate(556)">
        <path id="Clip_28-3" data-name="Clip 28" d="M0,0H212.764V48.727H0Z" transform="translate(0.207 0.247)" fill="none"/>
        <g id="Group_29-2" data-name="Group 29" clip-path="url(#clip-path)">
          <path id="Fill_27" data-name="Fill 27" d="M211.727,38c-11-10.642-22.324-21.55-36.085-28.637C161.064,1.854,144.763.377,128.583.052,99.152-.54,69.22,3.916,42.153,15.713A139.994,139.994,0,0,0,1.042,42.9c-3.2,3.073,1.688,7.91,4.881,4.844,20.166-19.363,46.2-30.956,73.47-36.585a216.942,216.942,0,0,1,41.746-4.3c15.319-.15,31.671.163,46.012,6.07C182.679,19.33,195,31.38,206.846,42.842c3.181,3.082,8.068-1.755,4.881-4.841" transform="translate(0.207 0.247)" fill="#fefefe"/>
        </g>
      </g>
      <path id="Fill_30" data-name="Fill 30" d="M463.378,17.371C392.91-16.551,314.332,5,245.832,32.7c-37.7,15.242-74.642,33.8-114.884,41.46A265.762,265.762,0,0,1,3.9,66.887c-3.908-1.19-5.577,4.908-1.685,6.095a272.683,272.683,0,0,0,114.452,9.813c39.921-5.168,75.984-21.181,112.77-36.546,71.822-30,155.4-59.694,230.747-23.421,3.653,1.758,6.868-3.687,3.2-5.457" transform="translate(282 25)" fill="#c4e5ed"/>
      <path id="Fill_32" data-name="Fill 32" d="M160.95,1.9C131.613-.2,101.4-2.236,72.668,5.63c-13.977,3.827-26.542,10.437-39,17.765C21.865,30.333,10.32,37.371.887,47.48c-2.8,3,1.679,7.54,4.487,4.531,9.5-10.176,21.3-17.134,33.187-24.079,12.521-7.318,25.242-13.6,39.375-17.047,27.129-6.607,55.459-4.547,83.014-2.578,4.076.293,4.057-6.121,0-6.411" transform="translate(18 75)" fill="#c4e5ed"/>
      <path id="Fill_34" data-name="Fill 34" d="M100.36.491A230.337,230.337,0,0,1,2.99,34.576c-3.966.437-4.007,6.842,0,6.4A237.323,237.323,0,0,0,103.518,6.019c3.429-2.15.289-7.687-3.158-5.528" transform="translate(418 33)" fill="#c4e5ed"/>
      <g id="Group_38" data-name="Group 38" transform="translate(132 605)">
        <path id="Clip_37-3" data-name="Clip 37" d="M0,0H336.2V42.689H0Z" transform="translate(0.721 0.311)" fill="none"/>
        <g id="Group_38-2" data-name="Group 38" clip-path="url(#clip-path-2)">
          <path id="Fill_36" data-name="Fill 36" d="M.972,5.335c40.493,38.2,99.725,37.034,151.854,37.347,60.167.364,120.252-12.615,180.353-7.041,4.046.373,4.021-5.925,0-6.3-56.327-5.226-112.353,6.633-168.651,7.044C111.242,36.772,47.04,40.133,5.437.883,2.488-1.9-1.99,2.543.972,5.335" transform="translate(0.721 0.311)" fill="#c4e5ed"/>
        </g>
      </g>
      <path id="Fill_39" data-name="Fill 39" d="M3.052,6H98.946a3,3,0,1,0,0-6H3.052a3,3,0,1,0,0,6" transform="translate(496 636)" fill="#c4e5ed"/>
      <path id="Fill_41" data-name="Fill 41" d="M3.051,62.34l69.308.133c21.731.041,44,1.491,65.655-.6,15.477-1.5,30.795-6.5,40.728-19.073a48.522,48.522,0,0,0,9.124-40.53c-.837-3.967-6.93-2.289-6.089,1.678,3.682,17.4-3.7,35.728-19.355,44.715-14.706,8.443-32.91,7.61-49.3,7.585q-55.035-.081-110.074-.206c-4.066-.009-4.069,6.3,0,6.3" transform="translate(646 577)" fill="#c4e5ed"/>
    </g>
    <g id="Group_43_Copy_4" data-name="Group 43 Copy 4" transform="matrix(-1, -0.017, 0.017, -1, 462.45, 290.737)" opacity="0.747">
      <path id="Fill_1-2" data-name="Fill 1" d="M76.378,48.682c13.41-1.315,26.078-2.557,36.869-1.648,23.48,1.98,45.128,20.657,50.358,43.443,4.329,18.857-4.016,36.1-22.9,47.317-27.964,16.61-45.258,52.937-37.006,77.743,6.765,20.344,29.391,29.5,63.705,25.812C191.649,238.743,212,244.014,228.159,257c5.212-7.738,8.769-17.1,8.84-31.133.132-27.509-19.454-43.49-28.788-62.375a41.969,41.969,0,0,1-4.846-19.692c.511-29.469,25.969-95.7-16.463-131.189-30.681-25.652-90.792-5.752-124.02,3.62C41.732,22.2,21.057,30.358,0,36.966,17.1,54.487,47.111,51.552,76.378,48.682" transform="translate(292 32)" fill="#c4e5ed"/>
      <path id="Fill_3-2" data-name="Fill 3" d="M279,322H122.33S59.516,310.879,11.1,150.02q-4.533-15.091-7.132-28.27C-19.891,1.769,69.514-5.2,122.905,1.939c9.75,15.594,18.032,40.7,7.146,75.585-6.976,22.343-20.847,35.529-35.556,45.6-5.5,3.781-11.11,7.117-16.526,10.335-26.8,15.921-49.926,29.669-29.314,79.077,21.46,51.45,77.706,53.306,127.343,54.941,32.623,1.086,60.813,2.016,72.814,16.94Z" transform="translate(0 65)" fill="#c4e5ed"/>
      <path id="Fill_5-2" data-name="Fill 5" d="M475,222.128a94.622,94.622,0,0,1-6.733,7.979c-1.753,1.88-3.557,3.747-5.372,5.664-.053.053-.106.1-.16.159-.494.507-.993,1.031-1.477,1.564-1.908,2.012-3.817,4.089-5.713,6.321-.274.326-.547.641-.809.968s-.549.653-.8.979c-.274.326-.549.663-.8.991-.276.338-.549.692-.8,1.031-.8,1.019-1.57,2.089-2.34,3.2-.262.364-.512.732-.76,1.109q-1.527,2.254-2.954,4.74C431.03,283.419,454.735,319,454.735,319H238.448l.065-.368L207.33,279.855c-12.734-15.839-41.457-16.794-74.706-17.89-48.793-1.607-104.1-3.434-124.9-53.235C-11.99,161.5,9.163,148.941,35.941,133.052c5.556-3.29,11.31-6.711,16.958-10.589C67.854,112.186,81.974,98.7,89.139,75.743,99.886,41.35,92.394,16.163,82.851,0c4.079.6,7.923,1.278,11.44,1.983,31.691,6.347,66.73,11.636,99.573,9.3q5.276-.372,10.459-1.019A244.325,244.325,0,0,0,245.337.991C263.329,20.433,295.53,17.3,324.777,14.44c13.309-1.292,25.873-2.519,36.451-1.632,22.057,1.855,43.184,20.03,48.1,41.377,2.379,10.381,2.733,29.968-21.716,44.448-28.971,17.17-46.818,54.9-38.2,80.758,4.169,12.509,18.368,32.735,66.547,27.565q23.612-2.546,42.02,5.078A69.315,69.315,0,0,1,475,222.128" transform="translate(43 68)" fill="#c4e5ed"/>
      <path id="Fill_7-2" data-name="Fill 7" d="M244.815,175.468,275,213H118.349S55.543,201.9,7.131,41.257Q2.6,26.187,0,13.027C25.8,1.793,67.136-10.186,90.52,14.4c-5.495,3.774-11.108,7.105-16.526,10.321-26.8,15.9-49.918,29.626-29.31,78.968,21.46,51.377,77.7,53.23,127.329,54.863,32.619,1.084,60.8,2.013,72.8,16.916" transform="translate(4 175)" fill="#b1dce0"/>
      <path id="Fill_9-2" data-name="Fill 9" d="M486,66.24c0,.573-.014,1.12-.028,1.679-.012.339-.012.665-.026,1-.026.381-.039.757-.065,1.134,0,.155-.012.312-.026.471-.026.559-.065,1.1-.118,1.64-.053.688-.118,1.367-.2,2.032-.039.349-.093.716-.132,1.067-.209,1.587-.471,3.111-.8,4.57-.17.781-.339,1.536-.55,2.279-.17.677-.353,1.34-.562,1.991-.381,1.263-.812,2.475-1.284,3.635-.223.586-.471,1.159-.72,1.732q-.393.9-.824,1.757c-.248.494-.5.975-.747,1.446a.7.7,0,0,1-.051.1c-.276.508-.55,1-.838,1.485-.079.141-.17.3-.262.443-.523.871-1.073,1.718-1.637,2.55-.489.73-1,1.432-1.522,2.132l0,0c-.03.043-.063.08-.093.124-.383.512-.777,1.012-1.171,1.512-.174.222-.347.443-.525.661q-.663.824-1.351,1.628c-.112.133-.227.265-.339.394-1.059,1.226-2.142,2.44-3.264,3.638-1.741,1.887-3.547,3.75-5.379,5.651-.053.051-.1.1-.158.157-.5.508-1,1.028-1.479,1.561-1.911,2-3.824,4.076-5.723,6.3-.26.312-.536.637-.81.963s-.536.651-.8.977-.536.663-.8.989-.536.679-.8,1.028c-.8,1.018-1.57,2.085-2.343,3.191-.248.365-.511.73-.759,1.108-1.021,1.5-2,3.072-2.96,4.727C431.592,160.516,455.326,196,455.326,196H238.757l.065-.365L207.6,156.962c-12.75-15.8-41.513-16.747-74.8-17.841C83.939,137.52,28.564,135.7,7.736,86.032-12,38.932,9.176,26.4,35.988,10.558,41.551,7.277,47.311,3.866,52.966,0c5.3,6.235,9.556,14.556,12.319,25.455,20.946,82.649,81.991,134.2,143.193,100.878s121.055-56.3,151.268-10.574q9.113,13.828,18.682,27.344c4.332,6.133,6.649,14.874,12.869,19.546,14.373,10.823,27.293-16.315,34.337-24.61,13.027-15.325,26.982-29.508,32.937-48.712.262-.834.513-1.681.722-2.54.5-1.8.915-3.646,1.242-5.535,2.331-13.267-4.908-25.873-7.815-38.426-2.814-12.214-1.27-24.947,3.443-36.512.3-.743.627-1.485.968-2.226C466.493,22.9,486.13,38.829,486,66.24" transform="translate(43 192)" fill="#b1dce0"/>
      <path id="Fill_11-2" data-name="Fill 11" d="M7,3.5A3.5,3.5,0,1,1,3.5,0,3.5,3.5,0,0,1,7,3.5" transform="translate(433 148)" fill="#fefefe"/>
      <path id="Fill_13-2" data-name="Fill 13" d="M7,3.5A3.5,3.5,0,1,1,3.5,0,3.5,3.5,0,0,1,7,3.5" transform="translate(431 176)" fill="#fefefe"/>
      <path id="Fill_15-2" data-name="Fill 15" d="M7,3.5A3.5,3.5,0,1,1,3.5,0,3.5,3.5,0,0,1,7,3.5" transform="translate(458 147)" fill="#fefefe"/>
      <path id="Fill_17-2" data-name="Fill 17" d="M7,3.5A3.5,3.5,0,1,1,3.5,0,3.5,3.5,0,0,1,7,3.5" transform="translate(253 376)" fill="#fefefe"/>
      <path id="Fill_19-2" data-name="Fill 19" d="M7,3.5A3.5,3.5,0,1,1,3.5,0,3.5,3.5,0,0,1,7,3.5" transform="translate(257 331)" fill="#fefefe"/>
      <path id="Fill_21-2" data-name="Fill 21" d="M4,2A2,2,0,1,1,2,0,2,2,0,0,1,4,2" transform="translate(277 358)" fill="#fefefe"/>
      <path id="Fill_23-2" data-name="Fill 23" d="M7,3.5A3.5,3.5,0,1,1,3.5,0,3.5,3.5,0,0,1,7,3.5" transform="translate(89 177)" fill="#fefefe"/>
      <path id="Fill_25-2" data-name="Fill 25" d="M6,3A3,3,0,1,1,3,0,3,3,0,0,1,6,3" transform="translate(144 121)" fill="#fefefe"/>
      <g id="Group_29-3" data-name="Group 29" transform="translate(345)">
        <path id="Clip_28-4" data-name="Clip 28" d="M0,0H131.854V29.833H0Z" transform="translate(0.128 0.151)" fill="none"/>
        <g id="Group_29-4" data-name="Group 29" clip-path="url(#clip-path-3)">
          <path id="Fill_27-2" data-name="Fill 27" d="M131.211,23.266C124.4,16.75,117.376,10.072,108.849,5.733c-9.034-4.6-19.136-5.5-29.164-5.7C61.447-.331,42.9,2.4,26.123,9.62A86.85,86.85,0,0,0,.646,26.268c-1.981,1.881,1.046,4.843,3.025,2.966C16.168,17.379,32.3,10.281,49.2,6.834A136.025,136.025,0,0,1,75.072,4.2c9.494-.092,19.627.1,28.514,3.717,9.623,3.918,17.261,11.3,24.6,18.313,1.971,1.887,5-1.075,3.025-2.964" transform="translate(0.128 0.151)" fill="#fefefe"/>
        </g>
      </g>
      <path id="Fill_30-2" data-name="Fill 30" d="M287.992,10.831C244.2-10.32,195.359,3.12,152.786,20.39c-23.431,9.5-46.391,21.076-71.4,25.852A164.657,164.657,0,0,1,2.423,41.706c-2.429-.742-3.466,3.06-1.047,3.8a168.948,168.948,0,0,0,71.132,6.119C97.319,48.4,119.733,38.418,142.6,28.837c44.638-18.708,96.579-37.221,143.411-14.6,2.271,1.1,4.269-2.3,1.986-3.4" transform="translate(175 15)" fill="#c4e5ed"/>
      <path id="Fill_32-2" data-name="Fill 32" d="M100.1,1.181C81.857-.124,63.064-1.392,45.2,3.505,36.5,5.888,28.688,10,20.94,14.566c-7.341,4.32-14.522,8.7-20.389,15-1.742,1.868,1.045,4.695,2.791,2.821,5.906-6.336,13.25-10.668,20.64-14.993,7.787-4.557,15.7-8.47,24.49-10.614C65.345,2.664,82.965,3.946,100.1,5.172c2.535.182,2.523-3.811,0-3.992" transform="translate(11 46)" fill="#c4e5ed"/>
      <path id="Fill_34-2" data-name="Fill 34" d="M62.127.3A144.014,144.014,0,0,1,1.851,21.083c-2.455.267-2.48,4.172,0,3.9A148.39,148.39,0,0,0,64.083,3.67c2.123-1.311.179-4.687-1.955-3.371" transform="translate(260 21)" fill="#c4e5ed"/>
      <g id="Group_38-3" data-name="Group 38" transform="translate(82 375)">
        <path id="Clip_37-4" data-name="Clip 37" d="M0,0H208.507V26.8H0Z" transform="translate(0.447 0.195)" fill="none"/>
        <g id="Group_38-4" data-name="Group 38" clip-path="url(#clip-path-4)">
          <path id="Fill_36-2" data-name="Fill 36" d="M.6,3.35C25.716,27.338,62.45,26.6,94.779,26.8c37.315.228,74.578-7.921,111.851-4.421,2.51.234,2.494-3.72,0-3.955-34.933-3.282-69.679,4.165-104.594,4.423C68.99,23.09,29.173,25.2,3.372.555,1.543-1.194-1.234,1.6.6,3.35" transform="translate(0.447 0.195)" fill="#c4e5ed"/>
        </g>
      </g>
      <path id="Fill_39-2" data-name="Fill 39" d="M1.885,4H61.114c2.512,0,2.518-4,0-4H1.885c-2.512,0-2.516,4,0,4" transform="translate(308 394)" fill="#c4e5ed"/>
      <path id="Fill_41-2" data-name="Fill 41" d="M1.888,38.592l42.905.082c13.452.025,27.236.923,40.644-.374,9.581-.929,19.063-4.021,25.212-11.807A30.038,30.038,0,0,0,116.3,1.4c-.518-2.456-4.29-1.417-3.769,1.039a25.678,25.678,0,0,1-11.982,27.681c-9.1,5.227-20.373,4.711-30.517,4.7q-34.07-.05-68.141-.127c-2.517-.006-2.519,3.9,0,3.9" transform="translate(401 358)" fill="#c4e5ed"/>
    </g>
  </g>
</svg>
