<svg id="pain_releafe" data-name="pain releafe" xmlns="http://www.w3.org/2000/svg" width="208.522" height="161.249" viewBox="0 0 208.522 161.249">
  <g id="Layer_1" data-name="Layer 1" transform="translate(0 0)">
    <path id="background" d="M118.116,160.955c-15.587,10.227-30.826,21.6-25.26,43.405,2.031,7.956,6.6,15.1,11.523,21.58,7.021,9.26,9.992,19.984,3.089,29.946-6.4,9.238-16.743,14.44-24.656,22.144-13.735,13.359,16.216,20.5,24.731,22.476,8.766,2.033,17.677,3.408,26.6,4.572,31.245,4.08,63.932,3.781,93.848-7.121a145.683,145.683,0,0,0,34.782-17.767c6.63-4.734,14.607-11.167,15.911-19.778,1.034-6.827-3.794-17.945-9.317-22.144a514.452,514.452,0,0,1-39.408-33.138c-9.927-9.257-17.71-19.333-25.79-30.175-14.877-19.965-39.036-34.566-64.812-26.4A40.219,40.219,0,0,0,128.643,154C125.273,156.332,121.686,158.614,118.116,160.955Z" transform="translate(-74.781 -146.244)" fill="#d1edf0"/>
    <path id="Path_6910" data-name="Path 6910" d="M62.67,635.489c0,2.555,22.509,4.626,50.278,4.626s50.27-2.079,50.27-4.626-22.511-4.629-50.278-4.629S62.67,632.926,62.67,635.489Z" transform="translate(-62.67 -499.989)" fill="#bbbdbf" opacity="0.5"/>
    <path id="Path_6911" data-name="Path 6911" d="M476.73,188.776l7.07-2.285,6.843-2.212,4.121,12.749-13.913,4.5Z" transform="translate(-347.989 -134.514)" fill="#fff"/>
    <path id="Path_6912" data-name="Path 6912" d="M552.94,424.6l7.07-2.282,6.846-2.214,4.121,12.752-13.913,4.5Z" transform="translate(-403.619 -306.65)" fill="#d0d2d3"/>
    <path id="Path_6913" data-name="Path 6913" d="M452.066,32.311l-.286-5.941,1.766,5.46L464.108,64.5l-1.485.478Z" transform="translate(-329.777 -19.247)" fill="#002723"/>
    <path id="Path_6914" data-name="Path 6914" d="M471.75,202.492l9.781-3.162L491,196.27l20.157,62.371-19.252,6.222Z" transform="translate(-344.354 -143.266)" fill="#fff"/>
    <path id="Path_6915" data-name="Path 6915" d="M548.1,461.756l11.925-3.854,11.553-3.732,1.3,4.013L549.4,465.771Z" transform="translate(-400.086 -331.52)" fill="#fff"/>
    <path id="Path_6916" data-name="Path 6916" d="M484.74,156.867l1.785-.578,1.734-.559L495,176.581l-3.519,1.137Z" transform="translate(-353.836 -113.673)" fill="#fff"/>
    <path id="Path_6917" data-name="Path 6917" d="M498.93,252.347l14.818-4.788-15.52-48.023-1.853.6-1.391-4.315-5.469,1.766-5.652,1.828,1.393,4.315-1.847.6Z" transform="translate(-352.865 -142.937)" fill="#eb6841"/>
    <g id="Group_1033" data-name="Group 1033" transform="translate(143.534 55.281)">
      <line id="Line_1" data-name="Line 1" x1="3.851" y2="1.245" transform="translate(18.361 56.81)" fill="none" stroke="#a6a8ab" stroke-miterlimit="10" stroke-width="0.64"/>
      <line id="Line_2" data-name="Line 2" x1="3.851" y2="1.245" transform="translate(17.68 54.707)" fill="none" stroke="#a6a8ab" stroke-miterlimit="10" stroke-width="0.64"/>
      <line id="Line_3" data-name="Line 3" x1="3.848" y2="1.245" transform="translate(17.002 52.6)" fill="none" stroke="#a6a8ab" stroke-miterlimit="10" stroke-width="0.64"/>
      <line id="Line_4" data-name="Line 4" x1="3.848" y2="1.245" transform="translate(16.322 50.499)" fill="none" stroke="#a6a8ab" stroke-miterlimit="10" stroke-width="0.64"/>
      <line id="Line_5" data-name="Line 5" x1="3.851" y2="1.245" transform="translate(15.639 48.393)" fill="none" stroke="#a6a8ab" stroke-miterlimit="10" stroke-width="0.64"/>
      <line id="Line_6" data-name="Line 6" x1="3.848" y2="1.245" transform="translate(14.961 46.289)" fill="none" stroke="#a6a8ab" stroke-miterlimit="10" stroke-width="0.64"/>
      <line id="Line_7" data-name="Line 7" x1="3.851" y2="1.245" transform="translate(14.28 44.186)" fill="none" stroke="#a6a8ab" stroke-miterlimit="10" stroke-width="0.64"/>
      <line id="Line_8" data-name="Line 8" x1="3.848" y2="1.245" transform="translate(13.602 42.085)" fill="none" stroke="#a6a8ab" stroke-miterlimit="10" stroke-width="0.64"/>
      <line id="Line_9" data-name="Line 9" x1="3.851" y2="1.242" transform="translate(12.919 39.978)" fill="none" stroke="#a6a8ab" stroke-miterlimit="10" stroke-width="0.64"/>
      <line id="Line_10" data-name="Line 10" x1="3.851" y2="1.245" transform="translate(12.239 37.872)" fill="none" stroke="#a6a8ab" stroke-miterlimit="10" stroke-width="0.64"/>
      <line id="Line_11" data-name="Line 11" x1="3.851" y2="1.245" transform="translate(11.558 35.765)" fill="none" stroke="#a6a8ab" stroke-miterlimit="10" stroke-width="0.64"/>
      <line id="Line_12" data-name="Line 12" x1="3.848" y2="1.242" transform="translate(10.88 33.667)" fill="none" stroke="#a6a8ab" stroke-miterlimit="10" stroke-width="0.64"/>
      <line id="Line_13" data-name="Line 13" x1="3.851" y2="1.242" transform="translate(10.2 31.563)" fill="none" stroke="#a6a8ab" stroke-miterlimit="10" stroke-width="0.64"/>
      <line id="Line_14" data-name="Line 14" x1="3.848" y2="1.245" transform="translate(9.522 29.457)" fill="none" stroke="#a6a8ab" stroke-miterlimit="10" stroke-width="0.64"/>
      <line id="Line_15" data-name="Line 15" x1="3.848" y2="1.245" transform="translate(8.841 27.353)" fill="none" stroke="#a6a8ab" stroke-miterlimit="10" stroke-width="0.64"/>
      <line id="Line_16" data-name="Line 16" x1="3.848" y2="1.242" transform="translate(8.161 25.25)" fill="none" stroke="#a6a8ab" stroke-miterlimit="10" stroke-width="0.64"/>
      <line id="Line_17" data-name="Line 17" x1="3.848" y2="1.245" transform="translate(7.48 23.143)" fill="none" stroke="#a6a8ab" stroke-miterlimit="10" stroke-width="0.64"/>
      <line id="Line_18" data-name="Line 18" x1="3.851" y2="1.245" transform="translate(6.8 21.04)" fill="none" stroke="#a6a8ab" stroke-miterlimit="10" stroke-width="0.64"/>
      <line id="Line_19" data-name="Line 19" x1="3.848" y2="1.242" transform="translate(6.122 18.939)" fill="none" stroke="#a6a8ab" stroke-miterlimit="10" stroke-width="0.64"/>
      <line id="Line_20" data-name="Line 20" x1="3.851" y2="1.245" transform="translate(5.439 16.83)" fill="none" stroke="#a6a8ab" stroke-miterlimit="10" stroke-width="0.64"/>
      <line id="Line_21" data-name="Line 21" x1="3.848" y2="1.245" transform="translate(4.761 14.726)" fill="none" stroke="#a6a8ab" stroke-miterlimit="10" stroke-width="0.64"/>
      <line id="Line_22" data-name="Line 22" x1="3.848" y2="1.242" transform="translate(4.08 12.625)" fill="none" stroke="#a6a8ab" stroke-miterlimit="10" stroke-width="0.64"/>
      <line id="Line_23" data-name="Line 23" x1="3.848" y2="1.242" transform="translate(3.4 10.518)" fill="none" stroke="#a6a8ab" stroke-miterlimit="10" stroke-width="0.64"/>
      <line id="Line_24" data-name="Line 24" x1="3.851" y2="1.245" transform="translate(2.719 8.415)" fill="none" stroke="#a6a8ab" stroke-miterlimit="10" stroke-width="0.64"/>
      <line id="Line_25" data-name="Line 25" x1="3.851" y2="1.242" transform="translate(2.039 6.314)" fill="none" stroke="#a6a8ab" stroke-miterlimit="10" stroke-width="0.64"/>
      <line id="Line_26" data-name="Line 26" x1="3.851" y2="1.245" transform="translate(1.361 4.21)" fill="none" stroke="#a6a8ab" stroke-miterlimit="10" stroke-width="0.64"/>
      <line id="Line_27" data-name="Line 27" x1="3.848" y2="1.245" transform="translate(0.681 2.104)" fill="none" stroke="#a6a8ab" stroke-miterlimit="10" stroke-width="0.64"/>
      <line id="Line_28" data-name="Line 28" x1="3.851" y2="1.245" fill="none" stroke="#a6a8ab" stroke-miterlimit="10" stroke-width="0.64"/>
    </g>
    <path id="Path_6918" data-name="Path 6918" d="M603.963,449.668l-4.783,1.547-2.571-7.958,2.668-.864L583.614,393.9a49.513,49.513,0,0,1-8.2,15.058,51.227,51.227,0,0,1-6.135,6.392l10.751,33.265,2.668-.861,2.571,7.958-4.78,1.545,1.3,4.016,23.478-7.588Z" transform="translate(-432.47 -327.021)" fill="#b93318" opacity="0.3"/>
    <path id="Path_6919" data-name="Path 6919" d="M614.707,460.88l-4.782,1.547-2.571-7.958,2.668-.864L595.688,409.26a50.037,50.037,0,0,1-10.775,28.525q-.443.54-.913,1.1l6.77,20.942,2.668-.861,2.571,7.958-4.78,1.545,1.3,4.016,23.478-7.588Z" transform="translate(-443.215 -338.233)" fill="#b93318" opacity="0.3"/>
    <path id="Path_6920" data-name="Path 6920" d="M153.618,485.241a9.363,9.363,0,0,0,9.392-9.327V435.06a9.365,9.365,0,0,0-9.392-9.33H76.56a9.363,9.363,0,0,0-9.39,9.33v40.853a9.36,9.36,0,0,0,9.39,9.327Z" transform="translate(-65.955 -350.255)" fill="#eb6841"/>
    <path id="Path_6921" data-name="Path 6921" d="M108.283,465.942a5.009,5.009,0,0,0-1.007-7.04,5.09,5.09,0,0,0-7.092,1.007,5.009,5.009,0,0,0,1.015,7.021A5.085,5.085,0,0,0,108.283,465.942Z" transform="translate(-89.323 -373.735)" fill="#fff"/>
    <path id="Path_6922" data-name="Path 6922" d="M110.67,460.21a5.583,5.583,0,0,1,.61.381,4.788,4.788,0,0,1,.54.475l-6,7.95a4.485,4.485,0,0,1-1.15-.859Z" transform="translate(-93.328 -375.423)" fill="#d0d2d3"/>
    <path id="Path_6923" data-name="Path 6923" d="M108.265,525.263a5.007,5.007,0,0,0-1.007-7.038,5.1,5.1,0,0,0-7.091,1,5.012,5.012,0,0,0,1.015,7.038A5.08,5.08,0,0,0,108.265,525.263Z" transform="translate(-89.305 -417.039)" fill="#fff"/>
    <path id="Path_6924" data-name="Path 6924" d="M110.671,519.51a5.573,5.573,0,0,1,.61.381,4.794,4.794,0,0,1,.54.475l-6,7.953a4.654,4.654,0,0,1-1.15-.859Z" transform="translate(-93.328 -418.71)" fill="#d0d2d3"/>
    <path id="Path_6925" data-name="Path 6925" d="M108.283,584.558a5.009,5.009,0,0,0-1.007-7.04,5.093,5.093,0,0,0-7.091,1.021,5.009,5.009,0,0,0,1.015,7.021,5.082,5.082,0,0,0,7.083-1Z" transform="translate(-89.323 -460.323)" fill="#fff"/>
    <path id="Path_6926" data-name="Path 6926" d="M110.671,578.81a6.018,6.018,0,0,1,.61.381,5.087,5.087,0,0,1,.54.475l-6,7.95a4.7,4.7,0,0,1-.61-.383,5.661,5.661,0,0,1-.54-.47Z" transform="translate(-93.328 -461.996)" fill="#d0d2d3"/>
    <path id="Path_6927" data-name="Path 6927" d="M171.652,465.942a5.007,5.007,0,0,0-1.018-7.04,5.077,5.077,0,0,0-7.081,1.007,5,5,0,0,0,1.01,7.021A5.09,5.09,0,0,0,171.652,465.942Z" transform="translate(-135.576 -373.734)" fill="#fff"/>
    <path id="Path_6928" data-name="Path 6928" d="M174.006,460.21a4.873,4.873,0,0,1,.608.381,5.428,5.428,0,0,1,.54.475l-6.009,7.95a5.406,5.406,0,0,1-.6-.383,4.565,4.565,0,0,1-.54-.475Z" transform="translate(-139.556 -375.423)" fill="#d0d2d3"/>
    <path id="Path_6929" data-name="Path 6929" d="M171.638,525.262a5,5,0,0,0-1.018-7.037,5.082,5.082,0,0,0-7.081,1,5.007,5.007,0,0,0,1.007,7.032A5.085,5.085,0,0,0,171.638,525.262Z" transform="translate(-135.562 -417.038)" fill="#fff"/>
    <path id="Path_6930" data-name="Path 6930" d="M174.006,519.51a4.866,4.866,0,0,1,.608.381,5.432,5.432,0,0,1,.54.475l-6.009,7.953a5.853,5.853,0,0,1-.6-.386,4.808,4.808,0,0,1-.54-.473Z" transform="translate(-139.556 -418.71)" fill="#d0d2d3"/>
    <path id="Path_6931" data-name="Path 6931" d="M171.649,584.558a5.007,5.007,0,0,0-1.018-7.04,5.08,5.08,0,0,0-7.081,1.021,5,5,0,0,0,1.007,7.021A5.088,5.088,0,0,0,171.649,584.558Z" transform="translate(-135.574 -460.322)" fill="#fff"/>
    <path id="Path_6932" data-name="Path 6932" d="M174.006,578.81a5.212,5.212,0,0,1,.608.381,5.8,5.8,0,0,1,.54.475l-6.009,7.95a4.747,4.747,0,0,1-1.145-.853Z" transform="translate(-139.556 -461.996)" fill="#d0d2d3"/>
    <path id="Path_6933" data-name="Path 6933" d="M235.011,465.941A5,5,0,0,0,234,458.9a5.08,5.08,0,0,0-7.083,1.007,5,5,0,0,0,1,7.021A5.09,5.09,0,0,0,235.011,465.941Z" transform="translate(-181.828 -373.734)" fill="#fff"/>
    <path id="Path_6934" data-name="Path 6934" d="M237.369,460.21a5.587,5.587,0,0,1,.61.381,5.7,5.7,0,0,1,.54.475l-6.009,7.95a5.463,5.463,0,0,1-.61-.383,4.533,4.533,0,0,1-.54-.475Z" transform="translate(-185.805 -375.423)" fill="#d0d2d3"/>
    <path id="Path_6935" data-name="Path 6935" d="M235,525.259a5,5,0,0,0-1.01-7.037,5.082,5.082,0,0,0-7.083,1,5.009,5.009,0,0,0,1,7.037A5.085,5.085,0,0,0,235,525.259Z" transform="translate(-181.813 -417.035)" fill="#fff"/>
    <path id="Path_6936" data-name="Path 6936" d="M237.369,519.51a5.574,5.574,0,0,1,.61.381,5.7,5.7,0,0,1,.54.475l-6.009,7.953a5.915,5.915,0,0,1-.61-.386,4.779,4.779,0,0,1-.54-.473Z" transform="translate(-185.805 -418.71)" fill="#d0d2d3"/>
    <path id="Path_6937" data-name="Path 6937" d="M235.011,584.557a5.007,5.007,0,0,0-1.01-7.04,5.082,5.082,0,0,0-7.083,1.021,5,5,0,0,0,1,7.021,5.088,5.088,0,0,0,7.089-1Z" transform="translate(-181.828 -460.322)" fill="#fff"/>
    <path id="Path_6938" data-name="Path 6938" d="M237.369,578.81a6.017,6.017,0,0,1,.61.381,6.129,6.129,0,0,1,.54.475l-6.009,7.95a4.636,4.636,0,0,1-1.15-.853Z" transform="translate(-185.805 -461.996)" fill="#d0d2d3"/>
    <path id="Path_6939" data-name="Path 6939" d="M298.382,465.928a5,5,0,0,0-1.01-7.04,5.077,5.077,0,0,0-7.092,1.007,5,5,0,0,0,1.01,7.021A5.08,5.08,0,0,0,298.382,465.928Z" transform="translate(-228.08 -373.72)" fill="#fff"/>
    <path id="Path_6940" data-name="Path 6940" d="M300.766,460.21a5.281,5.281,0,0,1,.6.381,6.147,6.147,0,0,1,.54.475l-6.006,7.95a5.161,5.161,0,0,1-.6-.383,4.585,4.585,0,0,1-.54-.475Z" transform="translate(-232.084 -375.423)" fill="#d0d2d3"/>
    <path id="Path_6941" data-name="Path 6941" d="M298.364,525.243a5,5,0,0,0-1.01-7.038,5.082,5.082,0,0,0-7.092,1,5,5,0,0,0,1.01,7.037A5.077,5.077,0,0,0,298.364,525.243Z" transform="translate(-228.062 -417.019)" fill="#fff"/>
    <path id="Path_6942" data-name="Path 6942" d="M300.766,519.51a5.277,5.277,0,0,1,.6.381,6.132,6.132,0,0,1,.54.475l-6.006,7.953a5.571,5.571,0,0,1-.6-.386,4.825,4.825,0,0,1-.54-.473Z" transform="translate(-232.084 -418.71)" fill="#d0d2d3"/>
    <path id="Path_6943" data-name="Path 6943" d="M298.382,584.544a5,5,0,0,0-1.01-7.04,5.08,5.08,0,0,0-7.091,1.021,5,5,0,0,0,1.01,7.021,5.077,5.077,0,0,0,7.091-1Z" transform="translate(-228.08 -460.308)" fill="#fff"/>
    <path id="Path_6944" data-name="Path 6944" d="M300.766,578.81a5.677,5.677,0,0,1,.6.381,6.634,6.634,0,0,1,.54.475l-6.006,7.95a4.819,4.819,0,0,1-.6-.383,5.091,5.091,0,0,1-.54-.47Z" transform="translate(-232.084 -461.996)" fill="#d0d2d3"/>
    <path id="Path_6945" data-name="Path 6945" d="M361.737,465.941a5.012,5.012,0,0,0-1.013-7.04,5.08,5.08,0,0,0-7.083,1.007,5,5,0,0,0,1.007,7.021A5.09,5.09,0,0,0,361.737,465.941Z" transform="translate(-274.33 -373.734)" fill="#fff"/>
    <path id="Path_6946" data-name="Path 6946" d="M364.1,460.21a5.588,5.588,0,0,1,.61.381,6.069,6.069,0,0,1,.54.475l-6.006,7.95a5.01,5.01,0,0,1-.61-.383,4.759,4.759,0,0,1-.54-.475Z" transform="translate(-278.312 -375.423)" fill="#d0d2d3"/>
    <path id="Path_6947" data-name="Path 6947" d="M361.719,525.262a5.01,5.01,0,0,0-1.013-7.038,5.085,5.085,0,0,0-7.083,1,5.007,5.007,0,0,0,1.007,7.037A5.085,5.085,0,0,0,361.719,525.262Z" transform="translate(-274.312 -417.038)" fill="#fff"/>
    <path id="Path_6948" data-name="Path 6948" d="M364.1,519.51a5.583,5.583,0,0,1,.61.381,6.059,6.059,0,0,1,.54.475l-6.006,7.953a5.382,5.382,0,0,1-.61-.386,5.022,5.022,0,0,1-.54-.473Z" transform="translate(-278.312 -418.71)" fill="#d0d2d3"/>
    <path id="Path_6949" data-name="Path 6949" d="M361.737,584.557a5.012,5.012,0,0,0-1.013-7.04,5.082,5.082,0,0,0-7.083,1.021,5,5,0,0,0,1.007,7.021A5.088,5.088,0,0,0,361.737,584.557Z" transform="translate(-274.33 -460.322)" fill="#fff"/>
    <path id="Path_6950" data-name="Path 6950" d="M364.1,578.81a6.024,6.024,0,0,1,.61.381,6.544,6.544,0,0,1,.54.475l-6.006,7.95a4.7,4.7,0,0,1-.61-.383,5.3,5.3,0,0,1-.54-.47Z" transform="translate(-278.312 -461.996)" fill="#d0d2d3"/>
    <path id="Path_6951" data-name="Path 6951" d="M153.618,425.73H124.348a50.054,50.054,0,0,1-10.786,28.625c-7.632,9.552-21.234,18.471-33.953,18.471a50.684,50.684,0,0,1-12.438-.338V475.9a9.36,9.36,0,0,0,9.39,9.328h77.059a9.363,9.363,0,0,0,9.392-9.328V435.06a9.365,9.365,0,0,0-9.392-9.33Z" transform="translate(-65.955 -350.255)" fill="#b93318" opacity="0.3"/>
    <path id="Path_6952" data-name="Path 6952" d="M153.618,425.73H132.082a50.092,50.092,0,0,1-10.846,31.123c-7.636,9.557-21.241,18.474-33.958,18.474a49.89,49.89,0,0,1-20.108-2.139v2.727a9.36,9.36,0,0,0,9.39,9.328h77.059a9.363,9.363,0,0,0,9.392-9.328V435.06a9.365,9.365,0,0,0-9.392-9.33Z" transform="translate(-65.955 -350.255)" fill="#b93318" opacity="0.3"/>
    <path id="Path_6953" data-name="Path 6953" d="M355.529,298.305V291.2H323.819v7.105L308,318.48v63.575a11.429,11.429,0,0,0,11.391,11.466h40.57a11.428,11.428,0,0,0,11.391-11.466V318.48Z" transform="translate(-241.749 -252.055)" fill="#fff"/>
    <path id="Path_6954" data-name="Path 6954" d="M396.181,229.1v-18.22a4.737,4.737,0,0,0-4.731-4.753H366.74a4.737,4.737,0,0,0-4.72,4.753V229.1Z" transform="translate(-281.181 -189.958)" fill="#eb6841"/>
    <rect id="Rectangle_410" data-name="Rectangle 410" width="63.354" height="37.043" transform="translate(66.249 79.637)" fill="#eb6841"/>
    <g id="Group_1034" data-name="Group 1034" transform="translate(82.522 18.476)">
      <path id="Path_6955" data-name="Path 6955" d="M370.818,232.459a1.291,1.291,0,0,1-1.285,1.294h0a1.291,1.291,0,0,1-1.283-1.294V215.951a1.288,1.288,0,0,1,1.283-1.291h0a1.288,1.288,0,0,1,1.285,1.291Z" transform="translate(-368.25 -214.66)" fill="#fff"/>
      <path id="Path_6956" data-name="Path 6956" d="M388.248,232.459a1.291,1.291,0,0,1-1.285,1.294h0a1.291,1.291,0,0,1-1.283-1.294V215.951a1.288,1.288,0,0,1,1.283-1.291h0a1.288,1.288,0,0,1,1.285,1.291Z" transform="translate(-380.973 -214.66)" fill="#fff"/>
      <path id="Path_6957" data-name="Path 6957" d="M405.671,232.459a1.291,1.291,0,0,1-1.285,1.294h0a1.291,1.291,0,0,1-1.285-1.294V215.951a1.291,1.291,0,0,1,1.285-1.291h0a1.291,1.291,0,0,1,1.285,1.291Z" transform="translate(-393.689 -214.66)" fill="#fff"/>
      <path id="Path_6958" data-name="Path 6958" d="M423.065,232.459a1.291,1.291,0,0,1-1.283,1.294h0a1.288,1.288,0,0,1-1.283-1.294V215.951a1.285,1.285,0,0,1,1.283-1.291h0a1.288,1.288,0,0,1,1.283,1.291Z" transform="translate(-406.39 -214.66)" fill="#fff"/>
      <path id="Path_6959" data-name="Path 6959" d="M440.538,232.459a1.291,1.291,0,0,1-1.285,1.294h0a1.288,1.288,0,0,1-1.283-1.294V215.951a1.285,1.285,0,0,1,1.283-1.291h0a1.291,1.291,0,0,1,1.285,1.291Z" transform="translate(-419.142 -214.66)" fill="#fff"/>
      <path id="Path_6960" data-name="Path 6960" d="M457.958,232.459a1.291,1.291,0,0,1-1.283,1.294h0a1.291,1.291,0,0,1-1.285-1.294V215.951a1.288,1.288,0,0,1,1.285-1.291h0a1.288,1.288,0,0,1,1.283,1.291Z" transform="translate(-431.858 -214.66)" fill="#fff"/>
      <path id="Path_6961" data-name="Path 6961" d="M475.388,232.459a1.291,1.291,0,0,1-1.283,1.294h0a1.291,1.291,0,0,1-1.285-1.294V215.951a1.288,1.288,0,0,1,1.285-1.291h0a1.288,1.288,0,0,1,1.283,1.291Z" transform="translate(-444.581 -214.66)" fill="#fff"/>
    </g>
    <path id="Path_6962" data-name="Path 6962" d="M340.593,324.61h-9.3v-9.36h-7.275v9.36h-9.3v7.326h9.3V341.3h7.275v-9.363h9.3Z" transform="translate(-229.73 -230.115)" fill="#fff"/>
    <path id="Path_6963" data-name="Path 6963" d="M369.748,298.305V291.2H357.6a33.145,33.145,0,0,0,1.62,4.6c7.515,13.343,27.929,69.627-31.736,95.905a11.258,11.258,0,0,0,6.13,1.812h40.57a11.428,11.428,0,0,0,11.391-11.466V318.48Z" transform="translate(-255.968 -252.055)" fill="#b93318" opacity="0.1"/>
    <path id="Path_6964" data-name="Path 6964" d="M368.223,298.305V291.2h-9.241c18.507,24.553,28.2,64.326-15.714,93.038a49.73,49.73,0,0,1-17.877,7.083,11.264,11.264,0,0,0,6.692,2.2h40.572a11.429,11.429,0,0,0,11.391-11.466V318.48Z" transform="translate(-254.443 -252.055)" fill="#b93318" opacity="0.1"/>
    <path id="Path_6965" data-name="Path 6965" d="M391.89,669.2c0,4.121,26.765,7.464,59.808,7.464s59.808-3.341,59.808-7.461-26.778-7.461-59.808-7.461S391.89,665.078,391.89,669.2Z" transform="translate(-302.984 -522.53)" fill="#bbbdbf" opacity="0.5"/>
    <path id="Path_6966" data-name="Path 6966" d="M310.86,659.684c0,2.131,13.835,3.856,30.9,3.856s30.9-1.723,30.9-3.856-13.835-3.854-30.9-3.854S310.86,657.556,310.86,659.684Z" transform="translate(-243.836 -518.216)" fill="#bbbdbf" opacity="0.5"/>
    <path id="Path_6967" data-name="Path 6967" d="M679.082,555.12H669.9v35.106h9.182a3.068,3.068,0,0,0,3.057-3.076V558.2a3.068,3.068,0,0,0-3.057-3.076Z" transform="translate(-505.918 -444.703)" fill="#fff"/>
    <rect id="Rectangle_411" data-name="Rectangle 411" width="1.175" height="35.101" transform="translate(163.977 110.417)" fill="#cccecf"/>
    <path id="Path_6968" data-name="Path 6968" d="M578.9,590.163a4.423,4.423,0,0,1-4.434-4.4V559.4A4.418,4.418,0,0,1,578.9,555h58.585a4.415,4.415,0,0,1,4.432,4.4v26.357a4.421,4.421,0,0,1-4.432,4.4Z" transform="translate(-436.259 -444.615)" fill="#eb6841"/>
    <path id="Path_6969" data-name="Path 6969" d="M780.09,591.75v3.711a2.085,2.085,0,1,0,4.17,0V591.75Z" transform="translate(-586.351 -471.441)" fill="#e04d30"/>
    <path id="Path_6970" data-name="Path 6970" d="M784.26,576.481v-3.656a2.085,2.085,0,1,0-4.17,0v3.656Z" transform="translate(-586.351 -456.105)" fill="#fff"/>
    <path id="Path_6971" data-name="Path 6971" d="M780.09,648v3.716a2.085,2.085,0,1,0,4.17,0V648Z" transform="translate(-586.351 -512.501)" fill="#e04d30"/>
    <path id="Path_6972" data-name="Path 6972" d="M784.26,632.716v-3.651a2.085,2.085,0,1,0-4.17,0v3.651Z" transform="translate(-586.351 -497.157)" fill="#fff"/>
    <path id="Path_6973" data-name="Path 6973" d="M744.71,591.75v3.711a2.088,2.088,0,0,0,4.172,0V591.75Z" transform="translate(-560.525 -471.441)" fill="#e04d30"/>
    <path id="Path_6974" data-name="Path 6974" d="M748.882,576.677v-3.656a2.088,2.088,0,0,0-4.172,0v3.656Z" transform="translate(-560.525 -456.301)" fill="#fff"/>
    <path id="Path_6975" data-name="Path 6975" d="M744.71,648v3.716a2.088,2.088,0,0,0,4.172,0V648Z" transform="translate(-560.525 -512.501)" fill="#e04d30"/>
    <path id="Path_6976" data-name="Path 6976" d="M748.882,632.912v-3.651a2.088,2.088,0,0,0-4.172,0v3.651Z" transform="translate(-560.525 -497.353)" fill="#fff"/>
    <path id="Path_6977" data-name="Path 6977" d="M709.32,591.75v3.711a2.087,2.087,0,0,0,4.172,0V591.75Z" transform="translate(-534.692 -471.441)" fill="#e04d30"/>
    <path id="Path_6978" data-name="Path 6978" d="M713.492,576.677V573.02a2.087,2.087,0,0,0-4.172,0v3.656Z" transform="translate(-534.692 -456.3)" fill="#fff"/>
    <path id="Path_6979" data-name="Path 6979" d="M709.32,648v3.716a2.087,2.087,0,0,0,4.172,0V648Z" transform="translate(-534.692 -512.501)" fill="#e04d30"/>
    <path id="Path_6980" data-name="Path 6980" d="M713.492,632.911V629.26a2.087,2.087,0,0,0-4.172,0v3.651Z" transform="translate(-534.692 -497.353)" fill="#fff"/>
    <path id="Path_6981" data-name="Path 6981" d="M673.94,591.75v3.711a2.088,2.088,0,0,0,4.175,0V591.75Z" transform="translate(-508.867 -471.441)" fill="#e04d30"/>
    <path id="Path_6982" data-name="Path 6982" d="M678.115,576.474v-3.656a2.088,2.088,0,0,0-4.175,0v3.656Z" transform="translate(-508.867 -456.098)" fill="#fff"/>
    <path id="Path_6983" data-name="Path 6983" d="M673.94,648v3.716a2.088,2.088,0,0,0,4.175,0V648Z" transform="translate(-508.867 -512.501)" fill="#e04d30"/>
    <path id="Path_6984" data-name="Path 6984" d="M678.115,632.709v-3.651a2.088,2.088,0,1,0-4.175,0v3.651Z" transform="translate(-508.867 -497.15)" fill="#fff"/>
    <path id="Path_6985" data-name="Path 6985" d="M638.56,591.75v3.711a2.087,2.087,0,0,0,4.175,0V591.75Z" transform="translate(-483.041 -471.441)" fill="#e04d30"/>
    <path id="Path_6986" data-name="Path 6986" d="M642.715,576.474v-3.656a2.087,2.087,0,0,0-4.175,0v3.656Z" transform="translate(-483.027 -456.098)" fill="#fff"/>
    <path id="Path_6987" data-name="Path 6987" d="M638.56,648v3.716a2.087,2.087,0,0,0,4.175,0V648Z" transform="translate(-483.041 -512.501)" fill="#e04d30"/>
    <path id="Path_6988" data-name="Path 6988" d="M642.715,632.709v-3.651a2.087,2.087,0,1,0-4.175,0v3.651Z" transform="translate(-483.027 -497.15)" fill="#fff"/>
    <path id="Path_6989" data-name="Path 6989" d="M603.18,591.75v3.711a2.087,2.087,0,0,0,4.175,0V591.75Z" transform="translate(-457.215 -471.441)" fill="#e04d30"/>
    <path id="Path_6990" data-name="Path 6990" d="M607.355,576.474v-3.656a2.087,2.087,0,0,0-4.175,0v3.656Z" transform="translate(-457.215 -456.098)" fill="#fff"/>
    <path id="Path_6991" data-name="Path 6991" d="M603.18,648v3.716a2.087,2.087,0,0,0,4.175,0V648Z" transform="translate(-457.215 -512.501)" fill="#e04d30"/>
    <path id="Path_6992" data-name="Path 6992" d="M607.355,632.709v-3.651a2.087,2.087,0,1,0-4.175,0v3.651Z" transform="translate(-457.215 -497.15)" fill="#fff"/>
    <path id="Path_6993" data-name="Path 6993" d="M574.47,593.16v-1.62c.343.027.683.057,1.029.078,4.051.27,8.118.762,12.19.778,6.8.022,14.337-.27,20.656-2.822,4.248-1.715,9-3.084,12.717-5.9a86.916,86.916,0,0,0,10.753-9.125c1.5-1.531,3.181-2.792,4.807-4.186a38.7,38.7,0,0,0,4.964-5.22,4.32,4.32,0,0,1,.332,1.663V593.16a4.424,4.424,0,0,1-4.434,4.4H578.9A4.421,4.421,0,0,1,574.47,593.16Z" transform="translate(-436.259 -452.017)" fill="#b93318" opacity="0.3"/>
    <path id="Path_6994" data-name="Path 6994" d="M574.51,603.217c.967.229,1.944.435,2.954.578,10.632,1.474,44.985,3.624,63.9-24.345.186-.27.394-.54.589-.81v24.375a4.423,4.423,0,0,1-4.434,4.4H578.931A4.421,4.421,0,0,1,574.51,603.217Z" transform="translate(-436.288 -461.872)" fill="#b93318" opacity="0.3"/>
    <rect id="Rectangle_412" data-name="Rectangle 412" width="72.044" height="37.41" transform="translate(91.933 109.264)" fill="#fff"/>
    <rect id="Rectangle_413" data-name="Rectangle 413" width="22.266" height="37.41" transform="translate(99.675 109.264)" fill="#eb6841"/>
    <path id="Path_6995" data-name="Path 6995" d="M396.675,452.678h-5.757v-5.8H386.41v5.8h-5.76v4.537h5.76v5.8h4.507v-5.8h5.757Z" transform="translate(-277.856 -326.198)" fill="#fff"/>
    <g id="Group_1035" data-name="Group 1035" transform="translate(125.573 112.645)">
      <rect id="Rectangle_414" data-name="Rectangle 414" width="25.279" height="1.931" fill="#bbbdbf"/>
      <rect id="Rectangle_415" data-name="Rectangle 415" width="25.279" height="1.928" transform="translate(0 3.314)" fill="#bbbdbf"/>
      <rect id="Rectangle_416" data-name="Rectangle 416" width="13.692" height="1.931" transform="translate(0 6.624)" fill="#bbbdbf"/>
    </g>
    <path id="Path_6996" data-name="Path 6996" d="M468.12,550.82c-7.189,22.463-38.582,37.421-65.02,32.708v4.71h72.076V550.82Z" transform="translate(-311.167 -441.564)" fill="#b93318" opacity="0.1"/>
    <path id="Path_6997" data-name="Path 6997" d="M403.1,606.443v3.095h72.076V580C460.053,607.129,407.753,607.259,403.1,606.443Z" transform="translate(-311.167 -462.864)" fill="#b93318" opacity="0.1"/>
  </g>
</svg>
