<?xml version="1.0" encoding="UTF-8"?>
<svg width="375px" height="812px" viewBox="0 0 375 812" version="1.1" xmlns="http://www.w3.org/2000/svg" xmlns:xlink="http://www.w3.org/1999/xlink">
    <!-- Generator: Sketch 61.1 (89650) - https://sketch.com -->
    <title>Artboard Copy 3</title>
    <desc>Created with Sketch.</desc>
    <defs>
        <polygon id="path-1" points="0.12653363 0.151345109 129.982251 0.151345109 129.982251 29.9844562 0.12653363 29.9844562"></polygon>
        <polygon id="path-3" points="0.155733698 0.186658967 159.978155 0.186658967 159.978155 36.9808293 0.155733698 36.9808293"></polygon>
        <polygon id="path-5" points="0.539095904 0.231622919 251.944117 0.231622919 251.944117 32 0.539095904 32"></polygon>
    </defs>
    <g id="Artboard-Copy-3" stroke="none" stroke-width="1" fill="none" fill-rule="evenodd">
        <g id="Group-3" transform="translate(-203.000000, -100.000000)">
            <g id="Group-43-Copy-5" opacity="0.395205543" transform="translate(484.500000, 863.000000) rotate(-15.000000) translate(-484.500000, -863.000000) translate(227.000000, 667.000000)">
                <path d="M358.444627,79.3559608 C371.515613,78.0768697 383.862031,76.8686264 394.379777,77.7532673 C417.265025,79.6795632 438.365688,97.8472534 443.462587,120.013061 C447.68157,138.356913 439.548383,155.134453 421.146642,166.041195 C393.89098,182.198337 377.034219,217.536103 385.077313,241.666502 C391.67127,261.456034 413.724607,270.365632 447.169771,266.775368 C470.79684,264.240164 490.6343,269.368017 506.383123,282 C511.462771,274.472893 514.930349,265.367985 515,251.71541 C515.127784,224.955981 496.037895,209.409661 486.940534,191.039002 C484.000089,185.105015 482.090908,178.874232 482.21742,171.883271 C482.715801,143.216694 507.529398,78.7930075 466.171486,44.2671201 C436.26674,19.3133535 377.67828,38.6720536 345.291216,47.7884504 C324.675515,53.5960604 304.523692,61.5310212 284,67.9590288 C300.665077,85.0027271 329.918094,82.1477496 358.444627,79.3559608" id="Fill-1" fill="#C4E5ED"></path>
                <path d="M271,378 L118.822198,378 C118.822198,378 57.8093924,367.155254 10.7774911,210.292644 C7.84230529,200.481646 5.54087452,191.298966 3.8502228,182.725391 C-19.3210876,65.7254871 67.5205878,58.9273452 119.381281,65.8907331 C128.851229,81.0972043 136.896663,105.576664 126.321952,139.598117 C119.545943,161.385605 106.072425,174.244046 91.7851736,184.064652 C86.4470796,187.751942 80.9941056,191.004982 75.7325983,194.142734 C49.6988594,209.668168 27.2378907,223.074227 47.2595725,271.254953 C68.1045615,321.426316 122.737694,323.236336 170.950946,324.831152 C202.638699,325.889879 230.020364,326.79681 241.676862,341.349983 L271,378 Z" id="Fill-3" fill="#C4E5ED"></path>
                <path d="M505,283.253322 C502.990679,285.986806 500.778318,288.527927 498.45103,291.057506 C496.746267,292.8965 494.991703,294.722029 493.225645,296.597572 C493.173928,296.64951 493.12221,296.699525 493.070493,296.753386 C492.589712,297.249684 492.105099,297.761371 491.633895,298.282676 C489.777811,300.250553 487.921727,302.281911 486.077135,304.465236 C485.810886,304.784559 485.544637,305.092341 485.28988,305.411664 C485.021715,305.730987 484.755466,306.05031 484.514117,306.369634 C484.247868,306.688957 483.979703,307.017898 483.738354,307.339145 C483.470189,307.67001 483.20394,308.016265 482.962592,308.34713 C482.186829,309.343572 481.435967,310.390029 480.687021,311.476882 C480.432264,311.832755 480.189,312.192474 479.947652,312.561812 C478.957357,314.031469 478.003456,315.576147 477.074457,317.197771 C462.233445,343.199534 485.28988,378 485.28988,378 L274.922178,378 L274.985388,377.64028 L244.655938,339.713909 C232.270551,324.222883 204.333515,323.287996 171.994743,322.216532 C124.537218,320.644923 70.7471697,318.857867 50.5160435,270.149526 C31.3384223,223.959221 51.9124165,211.67297 77.9569746,196.131929 C83.3604973,192.913689 88.9574819,189.568489 94.4510314,185.775083 C108.997062,175.724094 122.730936,162.531811 129.699392,140.081076 C140.152077,106.442485 132.865653,81.8084258 123.583317,66 C127.550242,66.5867084 131.289227,67.2503622 134.710245,67.9390233 C165.533884,74.1465908 199.613812,79.3192431 231.557998,77.0320421 C234.979016,76.7896642 238.375133,76.4587991 241.731025,76.0355996 C255.338478,74.3254888 268.562839,70.9783653 281.62247,66.9695116 C299.122145,85.9846356 330.441889,82.9202863 358.888439,80.1233222 C371.833142,78.8594946 384.053799,77.6591468 394.341754,78.5267058 C415.794946,80.3406929 436.344039,98.1169964 441.125036,118.996122 C443.438916,129.149063 443.7837,148.306536 420.00322,162.468331 C391.824835,179.261657 374.466904,216.168503 382.847057,241.454674 C386.902094,253.688988 400.712586,273.471642 447.572487,268.414408 C462.882787,266.754311 476.52855,268.425949 488.442733,273.381231 C494.407486,275.858872 499.925937,279.154057 505,283.253322" id="Fill-5" fill="#C4E5ED"></path>
                <path d="M241.583328,341.349118 L271,378 L118.336788,378 C118.336788,378 57.1293656,367.156919 9.94936464,210.288684 C7.0028955,200.477454 4.69412372,191.294557 3,182.72078 C28.144868,171.750879 68.4273653,160.052726 91.2154422,184.061994 C85.8603209,187.74745 80.3899532,191.000566 75.1097422,194.140314 C48.9948827,209.664193 26.462269,223.070569 46.5458943,271.254354 C67.4592946,321.42498 122.264773,323.235043 170.633734,324.829896 C202.422563,325.888648 229.889649,326.795601 241.583328,341.349118" id="Fill-7" fill="#B1DCE0"></path>
                <path d="M515,251.549731 C515,252.107859 514.985969,252.641138 514.972563,253.185886 C514.961072,253.516557 514.961072,253.833849 514.947667,254.162609 C514.92277,254.533419 514.909364,254.900407 514.884468,255.267395 C514.884468,255.418395 514.872977,255.571307 514.859571,255.72613 C514.834674,256.270878 514.796372,256.802246 514.744664,257.324057 C514.692955,257.994956 514.629756,258.656299 514.555067,259.304262 C514.516764,259.64449 514.465056,260.001921 514.426754,260.344061 C514.223751,261.89038 513.96904,263.375534 513.651129,264.797612 C513.486429,265.558348 513.321729,266.294235 513.116811,267.018654 C512.95211,267.678085 512.774004,268.324137 512.571001,268.95872 C512.201383,270.189658 511.781971,271.370901 511.324257,272.500535 C511.107848,273.072043 510.866543,273.63017 510.625238,274.188297 C510.370527,274.771273 510.104325,275.340869 509.824717,275.900908 C509.583412,276.382579 509.340191,276.850871 509.098886,277.309606 C509.087395,277.334454 509.07399,277.372682 509.049093,277.41091 C508.780976,277.905961 508.514774,278.387633 508.235166,278.857836 C508.158562,278.995457 508.070466,279.148368 507.980455,279.289812 C507.472948,280.138471 506.938629,280.964194 506.390905,281.774625 C505.915955,282.485665 505.416108,283.169944 504.912431,283.852312 C504.914346,283.854224 504.914346,283.854224 504.916261,283.856135 C504.887534,283.898186 504.854977,283.934502 504.826251,283.976553 C504.454717,284.475427 504.071693,284.962833 503.688668,285.450239 C503.520138,285.666226 503.351607,285.882214 503.179246,286.094379 C502.750259,286.62957 502.311696,287.159026 501.867388,287.680837 C501.758226,287.810812 501.647149,287.938875 501.537987,288.065027 C500.509567,289.25965 499.458166,290.442803 498.368462,291.610666 C496.677409,293.449428 494.923158,295.265254 493.144011,297.117396 C493.092302,297.167092 493.042509,297.2187 492.990801,297.270307 C492.50819,297.765359 492.023665,298.271878 491.55446,298.791778 C489.698708,300.745224 487.84104,302.763657 485.996778,304.935003 C485.743982,305.238914 485.475865,305.556206 485.209663,305.873498 C484.954952,306.190789 484.68875,306.508081 484.434039,306.825373 C484.167837,307.142664 483.913126,307.471424 483.658415,307.788716 C483.392213,308.119387 483.137502,308.450059 482.882791,308.790287 C482.107167,309.782301 481.358354,310.8221 480.607627,311.900127 C480.366322,312.255647 480.11161,312.611166 479.870305,312.980065 C478.878272,314.43846 477.924542,315.973311 476.995708,317.586528 C462.159264,343.420947 485.209663,378 485.209663,378 L274.879553,378 L274.942752,377.64448 L244.620637,339.957499 C232.237463,324.565032 204.303504,323.638006 171.970511,322.571447 C124.521467,321.011749 70.7410308,319.234151 50.5135198,270.837621 C31.3412406,224.939286 51.9115583,212.731204 77.9514624,197.289041 C83.3540195,194.091277 88.9480888,190.76736 94.4406566,187 C99.5904177,193.076326 103.721334,201.184465 106.404419,211.806088 C126.746837,292.346553 186.033247,342.583756 245.472866,310.111061 C304.91057,277.638366 363.040247,255.242547 392.383735,299.806729 C398.284223,308.790287 404.334092,317.661073 410.527594,326.453491 C414.735115,332.430424 416.985383,340.947602 423.025675,345.500545 C436.984994,356.047625 449.532869,329.601559 456.373682,321.518268 C469.024973,306.584537 482.578287,292.763237 488.361953,274.048766 C488.616664,273.236423 488.859884,272.4107 489.062887,271.573509 C489.545498,269.822671 489.951504,268.020225 490.269414,266.179551 C492.533087,253.250873 485.502677,240.966335 482.679788,228.733405 C479.94691,216.831147 481.44645,204.422368 486.02359,193.152782 C486.314688,192.428363 486.632598,191.705855 486.963914,190.983348 C496.054995,209.319363 515.125773,224.837982 515,251.549731" id="Fill-9" fill="#B1DCE0"></path>
                <path d="M94,175 C94,177.20854 92.2100819,179 89.9990067,179 C87.7899181,179 86,177.20854 86,175 C86,172.79146 87.7899181,171 89.9990067,171 C92.2100819,171 94,172.79146 94,175" id="Fill-23" fill="#FEFEFE"></path>
                <path d="M146,120 C146,121.65747 144.655451,123 143,123 C141.34253,123 140,121.65747 140,120 C140,118.344549 141.34253,117 143,117 C144.655451,117 146,118.344549 146,120" id="Fill-25" fill="#FEFEFE"></path>
                <g id="Group-29" transform="translate(336.000000, 0.000000)">
                    <mask id="mask-2" fill="white">
                        <use xlink:href="#path-1"></use>
                    </mask>
                    <g id="Clip-28"></g>
                    <path d="M129.349602,23.4171114 C122.638113,16.9016087 115.724413,10.2232663 107.325904,5.88406793 C98.4286074,1.28624185 88.479812,0.382002717 78.6041978,0.182763587 C60.6420579,-0.179315217 42.3737123,2.54872826 25.8540129,9.77114674 C16.5811809,13.8248967 8.04593869,19.4055082 0.762480644,26.4191087 C-1.18837684,28.3003859 1.79279531,31.2621522 3.74172697,29.3847065 C16.0496541,17.5299783 31.9396098,10.4320842 48.5825617,6.98563043 C56.9598866,5.24995109 65.5086095,4.43575272 74.0611841,4.35145924 C83.411049,4.25950272 93.3906575,4.4510788 102.143518,8.06803533 C111.620487,11.9857663 119.142747,19.3633614 126.370356,26.3807935 C128.311584,28.2678179 131.294682,25.3060516 129.349602,23.4171114" id="Fill-27" fill="#FEFEFE" mask="url(#mask-2)"></path>
                </g>
                <path d="M451.016309,24.6269271 C408.281185,3.87451131 360.626952,17.0611848 319.08545,34.0054973 C296.221522,43.3297216 273.81846,54.6841578 249.413816,59.3695611 C223.773127,64.2936986 197.289769,62.58374 172.364482,54.9190103 C169.994593,54.1911618 168.982232,57.9216278 171.342479,58.6475354 C193.795678,65.5494799 217.452139,67.6922658 240.751864,64.6508296 C264.961749,61.4890558 286.832599,51.6931858 309.141174,42.2932653 C352.697757,23.9378972 403.381359,5.77468106 449.078361,27.9653254 C451.293985,29.0406003 453.243503,25.7099656 451.016309,24.6269271" id="Fill-30" fill="#C4E5ED"></path>
                <path d="M108.140421,47.1092674 C90.2519523,45.8838381 71.8271797,44.6922916 54.3098495,49.2928282 C45.7872749,51.5309779 38.1255075,55.3973863 30.5298066,59.6835654 C23.3324477,63.7419766 16.2924824,67.8587415 10.5408132,73.7712969 C8.83280067,75.525675 11.5648435,78.1817131 13.2767423,76.4216878 C19.0672741,70.4696025 26.2665762,66.3998971 33.5125134,62.3377212 C41.147077,58.0571892 48.9040578,54.3809012 57.5218459,52.3667546 C74.0637241,48.5022286 91.3381628,49.7069518 108.140421,50.8589683 C110.625686,51.0302649 110.614027,47.2786816 108.140421,47.1092674" id="Fill-32" fill="#C4E5ED"></path>
                <path d="M313.21586,19.2993653 C295.385511,30.6573774 275.592239,37.7473167 254.793936,40.083195 C252.414293,40.3497046 252.389781,44.2552461 254.793936,43.9867768 C276.280488,41.5725134 296.680927,34.4081082 315.110901,22.6699279 C317.168104,21.3589358 315.284377,17.9824943 313.21586,19.2993653" id="Fill-34" fill="#C4E5ED"></path>
            </g>
            <g id="Group-43-Copy-5" opacity="0.375093006" transform="translate(353.000000, 391.500000) rotate(114.000000) translate(-353.000000, -391.500000) translate(33.000000, 148.000000)">
                <path d="M445.376718,98.4216067 C461.50326,96.8355336 476.735854,95.3373119 489.712293,96.4342666 C517.94734,98.8228736 543.980625,121.350809 550.269007,148.836411 C555.474245,171.582787 545.439795,192.386937 522.736348,205.911297 C489.109233,225.946153 468.311929,269.764983 478.235228,299.686678 C486.370629,324.225698 513.579291,335.273599 554.842806,330.821672 C583.993085,327.678018 608.467874,334.036557 627.89824,349.700215 C634.165338,340.366603 638.443518,329.076517 638.529452,312.147324 C638.687107,278.965631 615.134646,259.688195 603.91063,236.908577 C600.282808,229.550433 597.927326,221.824263 598.083412,213.155472 C598.698297,177.608915 629.312476,97.7235446 578.286479,54.9114441 C541.391014,23.9687735 469.10655,47.9735617 429.148484,59.2778937 C403.713529,66.4793302 378.85089,76.3186815 353.529452,84.2894109 C374.090261,105.423597 410.181646,101.883425 445.376718,98.4216067" id="Fill-1" fill="#C4E5ED"></path>
                <path d="M336.559325,467.918686 L147.881313,467.918686 C147.881313,467.918686 72.234439,454.518172 13.9218234,260.687941 C10.2826262,248.564796 7.42919171,237.218046 5.33303312,226.623947 C-23.3959717,82.0508171 84.2748879,73.6505653 148.574493,82.2550064 C160.31583,101.045168 170.290981,131.293672 157.179901,173.33292 C148.778649,200.255039 132.073476,216.143813 114.359393,228.278829 C107.740944,232.835099 100.980061,236.854779 94.4565688,240.732001 C62.1785752,259.916296 34.3302893,276.481744 59.1542195,336.017163 C84.9989291,398.012351 152.73595,400.248936 212.513265,402.2196 C251.801402,403.527836 285.750625,404.648503 300.202962,422.631405 L336.559325,467.918686 Z" id="Fill-3" fill="#C4E5ED"></path>
                <path d="M625.780961,352.224523 C623.288881,355.606334 620.544979,358.750156 617.658537,361.879699 C615.544189,364.154865 613.368073,366.413372 611.177703,368.733756 C611.11356,368.798013 611.049417,368.85989 610.985274,368.926526 C610.38898,369.540536 609.787935,370.173584 609.203519,370.818532 C606.901493,373.25315 604.599466,375.766304 602.311694,378.467468 C601.981476,378.862529 601.651257,379.24331 601.335293,379.63837 C601.002699,380.03343 600.67248,380.42849 600.373145,380.82355 C600.042927,381.218611 599.710333,381.62557 599.410998,382.02301 C599.078404,382.43235 598.748185,382.860728 598.448851,383.270068 C597.486703,384.502846 596.55544,385.797501 595.626552,387.142134 C595.310588,387.582412 595.008877,388.027449 594.709542,388.484386 C593.48132,390.302615 592.298235,392.21366 591.146034,394.219899 C572.739325,426.388747 601.335293,469.44317 601.335293,469.44317 L340.424701,469.44317 L340.503098,468.998132 L302.886702,422.076403 C287.525605,402.911224 252.876424,401.754602 212.767948,400.429008 C153.90829,398.484645 87.1946586,396.273736 62.1028073,336.012776 C38.3175757,278.867079 63.8346724,263.66678 96.1366893,244.439724 C102.838461,240.458183 109.780176,236.31957 116.593604,231.626446 C134.63446,219.191569 151.66803,202.870346 160.310726,175.094758 C173.274771,133.477783 164.237713,103.00103 152.725205,83.4431702 C157.645222,84.1690338 162.282535,84.9900927 166.525485,85.84209 C204.754805,93.5219652 247.022767,99.9214645 286.641855,97.0917863 C290.884806,96.7919213 295.096873,96.3825818 299.259051,95.8590081 C316.135827,93.7432941 332.537469,89.6023016 348.734803,84.6426301 C370.438946,108.167751 409.283564,104.376601 444.564674,100.916255 C460.619468,99.352673 475.776258,97.8676274 488.535994,98.9409537 C515.143524,101.185181 540.629737,123.177659 546.559415,149.008885 C549.429227,161.569896 549.856849,185.271128 520.362876,202.79181 C485.41436,223.568169 463.886018,269.228562 474.279584,300.512094 C479.308882,315.648136 496.43748,340.12283 554.555928,333.866123 C573.544677,331.812286 590.468967,333.880402 605.245649,340.010975 C612.643493,343.076262 619.487805,347.152997 625.780961,352.224523" id="Fill-5" fill="#C4E5ED"></path>
                <path d="M299.780759,423.844502 L336.222308,469.305692 L147.102209,469.305692 C147.102209,469.305692 71.2780889,455.856101 12.831222,261.279156 C9.18111846,249.109457 6.3209982,237.719133 4.22230762,227.084351 C35.3719202,213.477455 85.2741184,198.967246 113.504124,228.747973 C106.870168,233.319356 100.093444,237.354471 93.5522868,241.248966 C61.2010429,260.504547 33.2875065,277.133609 58.1672215,336.900035 C84.0748666,399.130908 151.968221,401.376082 211.887978,403.354313 C251.26817,404.667573 285.294559,405.792543 299.780759,423.844502" id="Fill-7" fill="#B1DCE0"></path>
                <path d="M639.215813,312.834684 C639.215813,313.52723 639.198393,314.188943 639.18175,314.864886 C639.167484,315.275196 639.167484,315.668903 639.15084,316.076841 C639.11993,316.536957 639.103286,316.992329 639.072377,317.447702 C639.072377,317.635068 639.058111,317.824807 639.041467,318.016917 C639.010557,318.692861 638.963004,319.352202 638.898807,319.999685 C638.834609,320.832162 638.756146,321.652781 638.663417,322.456798 C638.615864,322.878967 638.551667,323.32248 638.504113,323.74702 C638.25208,325.665751 637.93585,327.508586 637.541156,329.273154 C637.336676,330.217103 637.132196,331.13022 636.877786,332.029106 C636.673306,332.847353 636.452182,333.648999 636.200149,334.436413 C635.741259,335.963808 635.220548,337.429538 634.652285,338.831232 C634.383608,339.540379 634.084021,340.232925 633.784435,340.92547 C633.468204,341.648849 633.137708,342.355624 632.790568,343.050542 C632.490981,343.648218 632.189017,344.229292 631.88943,344.798508 C631.875164,344.82934 631.858521,344.876775 631.827611,344.92421 C631.494737,345.538488 631.16424,346.136164 630.8171,346.71961 C630.721993,346.890375 630.612621,347.080113 630.50087,347.255621 C629.870787,348.30867 629.207417,349.333258 628.527402,350.338872 C627.93774,351.221156 627.317167,352.070236 626.69184,352.916944 C626.694217,352.919316 626.694217,352.919316 626.696595,352.921688 C626.66093,352.973866 626.62051,353.018929 626.584845,353.071107 C626.123576,353.690129 625.648042,354.29492 625.172508,354.899712 C624.963272,355.167717 624.754037,355.435723 624.540047,355.698985 C624.007448,356.36307 623.462962,357.020039 622.911342,357.667522 C622.775814,357.8288 622.637909,357.987706 622.502382,358.14424 C621.225572,359.626572 619.920231,361.094674 618.567335,362.543802 C616.467851,364.825407 614.289904,367.078552 612.081047,369.37676 C612.01685,369.438425 611.95503,369.502462 611.890833,369.566498 C611.29166,370.180777 610.690109,370.809286 610.107579,371.454397 C607.803615,373.878306 605.497274,376.382854 603.207576,379.077141 C602.893723,379.454246 602.560849,379.847954 602.230353,380.241661 C601.914122,380.635369 601.583626,381.029076 601.267396,381.422783 C600.936899,381.816491 600.620669,382.224429 600.304439,382.618136 C599.973942,383.028446 599.657712,383.438755 599.341482,383.860923 C598.378524,385.091852 597.448855,386.382074 596.516807,387.71973 C596.217221,388.160872 595.90099,388.602014 595.601404,389.059758 C594.36977,390.86939 593.185689,392.77389 592.032519,394.775631 C573.612695,426.831952 602.230353,469.738944 602.230353,469.738944 L341.100174,469.738944 L341.178637,469.297802 L303.53296,422.534375 C288.158935,403.434822 253.478214,402.284533 213.335982,400.961106 C154.426786,399.025774 87.6570081,396.820064 62.544039,336.767825 C38.741167,279.81544 64.2797394,264.667192 96.6089423,245.505974 C103.316354,241.538068 110.261534,237.413627 117.080696,232.738944 C123.474256,240.278678 128.602894,250.339563 131.934012,263.519274 C157.189641,363.456918 230.795226,425.793134 304.591024,385.49979 C378.384445,345.206446 450.553916,317.416869 486.984603,372.713786 C494.310209,383.860923 501.821274,394.868129 509.510665,405.778093 C514.73441,413.194497 517.528174,423.762932 525.027351,429.412396 C542.3582,442.49961 557.936706,409.684334 566.429749,399.654282 C582.136649,381.123945 598.963432,363.973956 606.144,340.752334 C606.460231,339.744348 606.762195,338.71976 607.014228,337.680942 C607.613402,335.508436 608.117468,333.271893 608.512162,330.987916 C611.32257,314.945525 602.594136,299.702408 599.089448,284.523327 C595.696511,269.754556 597.558228,254.357276 603.240863,240.373548 C603.602269,239.474661 603.996963,238.578147 604.4083,237.681632 C615.695108,260.433651 639.371963,279.689738 639.215813,312.834684" id="Fill-9" fill="#B1DCE0"></path>
                <path d="M532.382895,184.570647 C532.382895,187.055254 530.367002,189.070647 527.881777,189.070647 C525.396553,189.070647 523.382895,187.055254 523.382895,184.570647 C523.382895,182.086039 525.396553,180.070647 527.881777,180.070647 C530.367002,180.070647 532.382895,182.086039 532.382895,184.570647" id="Fill-11" fill="#FEFEFE"></path>
                <path d="M528.472457,217.882934 C528.472457,220.367542 526.456564,222.382934 523.97134,222.382934 C521.486115,222.382934 519.472457,220.367542 519.472457,217.882934 C519.472457,215.398326 521.486115,213.382934 523.97134,213.382934 C526.456564,213.382934 528.472457,215.398326 528.472457,217.882934" id="Fill-13" fill="#FEFEFE"></path>
                <path d="M562.375517,182.237702 C562.375517,184.72231 560.360125,186.737702 557.875517,186.737702 C555.390909,186.737702 553.375517,184.72231 553.375517,182.237702 C553.375517,179.753094 555.390909,177.737702 557.875517,177.737702 C560.360125,177.737702 562.375517,179.753094 562.375517,182.237702" id="Fill-15" fill="#FEFEFE"></path>
                <path d="M319.639058,405.002178 C319.639058,407.486786 317.623166,409.502178 315.137941,409.502178 C312.652716,409.502178 310.639058,407.486786 310.639058,405.002178 C310.639058,402.51757 312.652716,400.502178 315.137941,400.502178 C317.623166,400.502178 319.639058,402.51757 319.639058,405.002178" id="Fill-19" fill="#FEFEFE"></path>
                <path d="M116.603779,217.445053 C116.603779,219.929661 114.590121,221.945053 112.102661,221.945053 C109.617437,221.945053 107.603779,219.929661 107.603779,217.445053 C107.603779,214.960445 109.617437,212.945053 112.102661,212.945053 C114.590121,212.945053 116.603779,214.960445 116.603779,217.445053" id="Fill-23" fill="#FEFEFE"></path>
                <path d="M182.116073,150.311775 C182.116073,152.521735 180.323341,154.311775 178.116073,154.311775 C175.906113,154.311775 174.116073,152.521735 174.116073,150.311775 C174.116073,148.104507 175.906113,146.311775 178.116073,146.311775 C180.323341,146.311775 182.116073,148.104507 182.116073,150.311775" id="Fill-25" fill="#FEFEFE"></path>
                <g id="Group-29" transform="translate(417.956999, 0.590464)">
                    <mask id="mask-4" fill="white">
                        <use xlink:href="#path-3"></use>
                    </mask>
                    <g id="Clip-28"></g>
                    <path d="M159.19951,28.8811041 C150.939216,20.8453174 142.430047,12.6086951 132.09342,7.25701712 C121.142901,1.58636495 108.89823,0.471136685 96.743628,0.225408424 C74.6363789,-0.221155435 52.1522612,3.14343152 31.8203235,12.051081 C20.4076073,17.050706 9.90269377,23.9334601 0.938437716,32.5835674 C-1.46261765,34.9038092 2.2065173,38.5566543 4.60520242,36.241138 C19.7534204,21.6203065 39.3102889,12.8662372 59.7939221,8.61561087 C70.1044758,6.47493967 80.625981,5.47076168 91.1522266,5.36679973 C102.659753,5.25338668 114.942348,5.48966386 125.715099,9.9505769 C137.379061,14.7824451 146.637227,23.8814791 155.532746,32.536312 C157.92195,34.8636421 161.593455,31.210797 159.19951,28.8811041" id="Fill-27" fill="#FEFEFE" mask="url(#mask-4)"></path>
                </g>
                <path d="M559.434277,32.3888701 C506.545773,6.84743531 447.569434,23.0771873 396.158143,43.9317258 C367.862005,55.4076941 340.13623,69.3823849 309.933319,75.149035 C278.200693,81.209512 245.425189,79.1049475 214.577937,69.671434 C211.64499,68.7756205 210.392104,73.3669634 213.313119,74.260388 C241.100942,82.7550889 270.37791,85.3923639 299.213385,81.6490579 C329.175265,77.757644 356.24238,65.7011885 383.85122,54.1320557 C437.756352,31.5408333 500.481803,9.18610579 557.035895,36.4976681 C559.777926,37.8210833 562.190627,33.7218406 559.434277,32.3888701" id="Fill-30" fill="#C4E5ED"></path>
                <path d="M134.891426,58.5385437 C112.88861,56.9968745 90.2261398,55.4978321 68.6798237,61.285604 C58.1970569,64.1013407 48.773083,68.9655319 39.4303709,74.3578218 C30.5776194,79.4635649 21.918462,84.6427207 14.843909,92.0810969 C12.7430535,94.2882177 16.1034662,97.629685 18.2091018,95.4154597 C25.3314559,87.9273523 34.1865974,82.8074003 43.0991002,77.6969209 C52.4896134,72.3117355 62.0306998,67.686728 72.6305791,65.1528017 C92.9770893,60.2909787 114.224649,61.8065981 134.891426,63.2559092 C137.948302,63.4714114 137.933962,58.7516777 134.891426,58.5385437" id="Fill-32" fill="#C4E5ED"></path>
                <path d="M389.336476,26.2500232 C367.260805,39.8796378 342.75485,48.387565 317.00457,51.1906189 C314.058345,51.5104304 314.027996,56.1970802 317.00457,55.8749171 C343.606967,52.977801 368.864653,44.3805147 391.682716,30.2946984 C394.229729,28.7215079 391.897496,24.669778 389.336476,26.2500232" id="Fill-34" fill="#C4E5ED"></path>
                <g id="Group-38" transform="translate(99.669896, 454.192431)">
                    <mask id="mask-6" fill="white">
                        <use xlink:href="#path-5"></use>
                    </mask>
                    <g id="Clip-37"></g>
                    <path d="M1.26607385,4.20188235 C31.5458731,32.6324706 75.837994,31.7618824 114.818285,31.9948235 C159.809955,32.2654118 204.73997,22.6065882 249.681841,26.7548235 C252.707687,27.0324706 252.688716,22.3454118 249.681841,22.0677647 C207.561879,18.1783529 165.667196,27.0042353 123.568576,27.3101176 C83.7227408,27.5971765 35.7147107,30.0983529 4.60493808,0.888941176 C2.39958031,-1.184 -0.948769328,2.12423529 1.26607385,4.20188235" id="Fill-36" fill="#C4E5ED" mask="url(#mask-6)"></path>
                </g>
            </g>
        </g>
    </g>
</svg>