<svg id="simtoms" xmlns="http://www.w3.org/2000/svg" xmlns:xlink="http://www.w3.org/1999/xlink" width="189.964" height="207.53" viewBox="0 0 189.964 207.53">
  <defs>
    <linearGradient id="linear-gradient" x1="30.066" y1="0.516" x2="28.907" y2="0.479" gradientUnits="objectBoundingBox">
      <stop offset="0" stop-color="#f47b54"/>
      <stop offset="0.17" stop-color="#f68a64"/>
      <stop offset="0.44" stop-color="#fa9e78"/>
      <stop offset="0.72" stop-color="#fbaa84"/>
      <stop offset="1" stop-color="#fcae88"/>
    </linearGradient>
    <linearGradient id="linear-gradient-2" x1="32.885" y1="-0.211" x2="32.932" y2="0.868" gradientUnits="objectBoundingBox">
      <stop offset="0" stop-color="#f47b54"/>
      <stop offset="1" stop-color="#fcae88"/>
    </linearGradient>
  </defs>
  <path id="background" d="M121.078,224.657c-14.848,9.735-29.354,20.578-24.056,41.315,1.933,7.576,6.283,14.375,10.969,20.542,6.684,8.817,9.511,19.023,2.941,28.506-6.095,8.8-15.938,13.748-23.47,21.079C74.388,348.815,102.9,355.615,111,357.5c8.344,1.933,16.827,3.242,25.315,4.349,29.745,3.887,60.849,3.6,89.334-6.774a138.687,138.687,0,0,0,33.112-16.912c6.311-4.506,13.9-10.632,15.146-18.827.985-6.5-3.6-17.084-8.869-21.079A488.543,488.543,0,0,1,227.53,266.7c-9.45-8.812-16.858-18.4-24.55-28.722-14.164-19.007-37.161-32.9-61.695-25.133a38.171,38.171,0,0,0-10.2,5.188C127.88,220.253,124.466,222.426,121.078,224.657Z" transform="translate(-84.082 -169.686)" fill="#d1edf0"/>
  <g id="man_cold" data-name="man cold" transform="translate(10.413 0)">
    <path id="Path_6998" data-name="Path 6998" d="M272.81,305.04h31.228L290.7,323.459Z" transform="translate(-213.094 -226.625)" fill="#007884"/>
    <path id="Path_6999" data-name="Path 6999" d="M365.525,266.673s-39.058-37.2-69.875-12.611C303.549,263.707,323.667,274.586,365.525,266.673Z" transform="translate(-251.677 -195.693)" fill="#b04e31"/>
    <path id="Path_7000" data-name="Path 7000" d="M359.07,284.36a9.408,9.408,0,0,0,2.609,1.65,26.518,26.518,0,0,0,6.966,1.871,42.025,42.025,0,0,0,4.923.422,38.224,38.224,0,0,0,6.478-.344c4.884-.7,8.879-2.442,9.671-5.46,1.843-10.594-4.136-20.889-4.136-20.889a21.524,21.524,0,0,1-1.285,3.627,15.867,15.867,0,0,1-4.73,6.231,9.2,9.2,0,0,1-3.434,1.589,11.228,11.228,0,0,1-6.612-.663,22.819,22.819,0,0,1-4.324-2.288,40.313,40.313,0,0,1-5.239-4.193c-.257.594-.5,1.18-.72,1.756C356.317,275.157,355.957,281.414,359.07,284.36Z" transform="translate(-297.172 -207.544)" fill="#00a0b0"/>
    <path id="Path_7001" data-name="Path 7001" d="M445.09,281.991c1.9,7.455,3.224,14.321,3.224,14.321s2.021,1,4.861-1.846c1.452-4.745-.676-12.154-3.355-18.706A15.939,15.939,0,0,1,445.09,281.991Z" transform="translate(-362.701 -218.057)" fill="#a2cbf4"/>
    <path id="Path_7002" data-name="Path 7002" d="M406,303.56c1.65,5.4,3.108,11.568,4.054,15.91a38.227,38.227,0,0,0,6.478-.344c-.126-4.457-1.877-9.941-3.92-14.91A11.162,11.162,0,0,1,406,303.56Z" transform="translate(-333.66 -238.711)" fill="#a2cbf4"/>
    <path id="Path_7003" data-name="Path 7003" d="M366,280.106c1.244,4.717,2,12.123,2.447,18.341a26.518,26.518,0,0,0,6.966,1.871c-.211-5.838-1.913-12.665-3.455-17.776a40.31,40.31,0,0,1-5.239-4.193C366.465,278.944,366.224,279.53,366,280.106Z" transform="translate(-303.943 -219.981)" fill="#a2cbf4"/>
    <path id="Path_7004" data-name="Path 7004" d="M414.481,64.589s-.332-8.362-7.771-8.339c1.458.612,6.321,2.684,4.8,8.38C413.332,64.63,414.481,64.589,414.481,64.589Z" transform="translate(-334.188 -54.975)" fill="#482b0e"/>
    <path id="Path_7005" data-name="Path 7005" d="M321.769,118.6c-3.29,6.671,1.224,16.8,1.224,16.8l9-9.542-1.884-9S322.71,116.69,321.769,118.6Z" transform="translate(-270.189 -100.006)" fill="#482b0e"/>
    <path id="Path_7006" data-name="Path 7006" d="M323.159,127.892a.638.638,0,0,0,.018.118c.159,1.285.375,2.609.653,3.933a47.018,47.018,0,0,0,2.391,7.915c.29.725.594,1.429.913,2.123h0a40.166,40.166,0,0,0,2.278,4.242c4.946,7.995,11.961,12.6,18.588,11.2,6.748-1.411,11.367-8.648,12.6-18.19.136-1.057.237-2.141.285-3.249.018-.362.031-.725.033-1.087h0c.018-.758,0-1.524-.015-2.314a47.992,47.992,0,0,0-.987-8.226c-.278-1.316-.607-2.6-.974-3.841-4.162-14.092-14.041-23.565-23.192-21.65S321.39,113.373,323.159,127.892Z" transform="translate(-271.859 -86.456)" fill="#fcae88"/>
    <path id="Path_7007" data-name="Path 7007" d="M339.61,248.4h0a40.176,40.176,0,0,0,2.278,4.242c4.946,7.995,11.961,12.6,18.588,11.2,6.748-1.411,11.367-8.648,12.6-18.19.136-1.057.236-2.141.285-3.249,0,0-4.977-.866-6.555-.409C360.1,243.953,349.563,254.493,339.61,248.4Z" transform="translate(-284.336 -192.872)" fill="#482b0e"/>
    <path id="Path_7008" data-name="Path 7008" d="M423.689,87.229l1.37,26.22-7.969-1.583-11.4-18.9s3.306-9.216,5.735-9.231C413,83.72,423.689,87.229,423.689,87.229Z" transform="translate(-333.43 -75.391)" fill="#482b0e"/>
    <path id="Path_7009" data-name="Path 7009" d="M370.679,206.81s1.576,7.532,2.694,12.871c-11.9,3.617-2.887-12.527-2.7-12.853Z" transform="translate(-304.854 -166.831)" fill="url(#linear-gradient)"/>
    <path id="Path_7010" data-name="Path 7010" d="M382.285,177.071l.285,1.362-.771.159-.314-1.5-2.486.064s-.018,3.342.812,3.876c2.278,1.491,10.658-2.229,10.658-2.229l-.406-1.941Z" transform="translate(-313.601 -144.58)" fill="#482b0e"/>
    <path id="Path_7011" data-name="Path 7011" d="M330.088,178.776l.285,1.362.771-.159-.314-1.5,2.314-.936s1.352,3.049.81,3.876c-1.491,2.28-10.66,2.229-10.66,2.229l-.4-1.938Z" transform="translate(-271.914 -145.086)" fill="#482b0e"/>
    <path id="Path_7012" data-name="Path 7012" d="M384.448,280.221s-6.614-.085-11.218,1.758C374.477,279.5,378.662,274.535,384.448,280.221Z" transform="translate(-309.314 -219.423)" fill="#fff"/>
    <path id="Path_7013" data-name="Path 7013" d="M455.567,182.473c-1.059,4.316-3.948,7.313-6.455,6.7s-3.679-4.612-2.619-8.925,3.946-7.316,6.455-6.7S456.616,178.157,455.567,182.473Z" transform="translate(-363.454 -142.06)" fill="#fcae88"/>
    <path id="Path_7014" data-name="Path 7014" d="M459.67,189.979s8.257-2.874,1.4,6.684C460.783,195.248,464.025,193.174,459.67,189.979Z" transform="translate(-373.534 -154.025)" fill="url(#linear-gradient-2)"/>
    <path id="Path_7015" data-name="Path 7015" d="M316.08,70.1c.949-.468,14.606,1.625,22.927-.419a13.159,13.159,0,0,0,3.7-1.434c.141-.09.278-.18.409-.28a5.347,5.347,0,0,0,2.247-3.375c.018-.105.036-.208.046-.314a10.632,10.632,0,0,0-.846-5.421s-10.871-14.02-20.676-3.9a19.481,19.481,0,0,0-1.661,1.956,31.954,31.954,0,0,0-3.2,5.481q-.224.483-.44.979C317.959,64.821,316.679,68.33,316.08,70.1Z" transform="translate(-266.855 -51.289)" fill="#482b0e"/>
    <path id="Path_7016" data-name="Path 7016" d="M340,66.643c4.756-.918,12.408-.7,21.678,6.5.481.373.967.771,1.458,1.18.018-.105.036-.208.046-.314-.414-.4-.869-.825-1.375-1.285-4.511-4.046-12.424-9.691-20.146-8.049A19.481,19.481,0,0,0,340,66.643Z" transform="translate(-284.626 -61.018)" fill="#36200b"/>
    <path id="Path_7017" data-name="Path 7017" d="M325.86,89.062c3.622-1.324,12.064-3.447,23,4.085.368.257.738.514,1.111.792.141-.09.278-.18.409-.28-.362-.314-.748-.635-1.144-.961-5.7-4.648-14.853-9.9-22.94-4.627Q326.076,88.566,325.86,89.062Z" transform="translate(-274.121 -76.977)" fill="#36200b"/>
    <path id="Path_7018" data-name="Path 7018" d="M405.27,91.565a13.158,13.158,0,0,0,3.7-1.434c.141-.09.278-.18.409-.28a5.347,5.347,0,0,0,2.247-3.375c.018-.105.036-.208.046-.314a10.632,10.632,0,0,0-.846-5.421,12.3,12.3,0,0,1-.53,4.146c-.039.136-.082.272-.128.409a11.906,11.906,0,0,1-1.933,3.6c-.118.154-.244.3-.375.45A11.884,11.884,0,0,1,405.27,91.565Z" transform="translate(-333.118 -73.169)" fill="#36200b"/>
    <path id="Path_7019" data-name="Path 7019" d="M397.931,199.059s-6.169-4.37-7.491,1.231C391.147,199.753,392.126,197.219,397.931,199.059Z" transform="translate(-322.1 -159.867)" fill="#482b0e"/>
    <path id="Path_7020" data-name="Path 7020" d="M335,211.174s4.211-6.275,7.455-1.509C341.578,209.413,339.766,207.4,335,211.174Z" transform="translate(-280.911 -167.625)" fill="#482b0e"/>
    <path id="Path_7021" data-name="Path 7021" d="M201,304.367s-21.264-44.122-40.909-28.629-58.674,73.52-17.01,96.913,4.249,23.65,24.2,35.372,43.937-2.28,58.42-28.174S201,304.367,201,304.367Z" transform="translate(-124.594 -215.59)" fill="#eb6841"/>
    <path id="Path_7022" data-name="Path 7022" d="M225.7,379.855a86.375,86.375,0,0,1-8.29,12.293c-11.971-21.961-22.943-45.708-42.49-30.59-13.822,10.707-35.77-6.311-50.312-18.529-.748-25.807,21.961-56.623,35.475-67.281a13.622,13.622,0,0,1,12.658-2.756c15.141,4.185,28.251,31.385,28.251,31.385S240.186,353.953,225.7,379.855Z" transform="translate(-124.59 -215.6)" fill="#ef8667" opacity="0.51"/>
    <path id="Path_7023" data-name="Path 7023" d="M254.5,334.31a76.876,76.876,0,0,1-6.133,8.768c-10.851-19.909-20.791-41.446-38.516-27.727-10.429,8.069-25.963-1.257-38.477-11,7.337-12.545,16.6-23.187,23.475-28.608,19.645-15.493,40.909,28.629,40.909,28.629A189.163,189.163,0,0,1,254.5,334.31Z" transform="translate(-159.345 -215.59)" fill="#ef8667" opacity="0.51"/>
    <path id="Path_7024" data-name="Path 7024" d="M327.156,381.413c-14.483,25.9-38.469,39.906-58.42,28.177-15.953-9.378,4.776-11.406-7.586-23.814,5.221,1.185,9,3.856,8.869,11.663-.182,11.182,4.427,5.013,18.4,2.4s21.115-47.513,19.573-70.906c-1.424-21.593-29.48-50.127-33.786-54.384,15.141,4.185,28.251,31.385,28.251,31.385S341.641,355.512,327.156,381.413Z" transform="translate(-226.046 -217.158)" fill="#763421"/>
    <g id="cup" transform="translate(9.509 95.689)">
      <path id="Path_7025" data-name="Path 7025" d="M82.48,383.73l.458,4.254,2.83,26.367.324,3.026h13.3l.324-3.026,3.278-30.621Z" transform="translate(-81.2 -380.776)" fill="#e6e7e8"/>
      <path id="Path_7026" data-name="Path 7026" d="M161.58,426.478a2.948,2.948,0,0,0,2.949,2.948h17.177a2.948,2.948,0,0,0,2.949-2.948h0a2.951,2.951,0,0,0-2.949-2.948H164.529A2.951,2.951,0,0,0,161.58,426.478Z" transform="translate(-161.58 -423.53)" fill="#00a0b0"/>
      <path id="Path_7027" data-name="Path 7027" d="M168.34,451.57l2.828,26.367.321,3.026h12.982C174.867,473.662,169.795,457.079,168.34,451.57Z" transform="translate(-166.602 -444.362)" fill="#a7a9ac" opacity="0.47"/>
      <path id="Path_7028" data-name="Path 7028" d="M95.27,502.85l.324,3.026h13.3l.324-3.026Z" transform="translate(-90.702 -469.275)" fill="#00a0b0"/>
      <path id="Path_7029" data-name="Path 7029" d="M209.1,426.514a.514.514,0,0,0,.514.514H216.5a.514.514,0,0,0,.514-.514h0A.514.514,0,0,0,216.5,426H209.6a.514.514,0,0,0-.514.514Z" transform="translate(-196.877 -425.365)" fill="#66c6d0"/>
      <path id="Path_7030" data-name="Path 7030" d="M205.68,479.118c0,1.44,1.46,2.609,3.262,2.609h0c1.8,0,3.262-1.17,3.262-2.609V456.972c0-1.442-1.46-2.612-3.262-2.612h0c-1.8,0-3.262,1.17-3.262,2.612Z" transform="translate(-194.344 -446.435)" fill="#adadae"/>
      <path id="Path_7031" data-name="Path 7031" d="M207.83,476.958c0,1.442,1.463,2.612,3.262,2.612h0c1.8,0,3.265-1.17,3.265-2.612V454.814c0-1.445-1.463-2.614-3.265-2.614h0c-1.8,0-3.262,1.17-3.262,2.614Z" transform="translate(-195.941 -444.83)" fill="#d1d3d4"/>
    </g>
    <path id="Path_7032" data-name="Path 7032" d="M255.27,525.83l1.162.887a.08.08,0,0,1,.031.018c43.156,32.583,54.667,27.912,55.166,20.565a8.448,8.448,0,0,0-.18-2.357C305.7,517.53,258.028,517,258.028,517S257.383,517.743,255.27,525.83Z" transform="translate(-221.677 -397.283)" fill="#fcae88"/>
    <path id="Path_7033" data-name="Path 7033" d="M218.753,478.137s-8.434-13.658-9.383-16.771c-1.7-.584-1.887,2.645-1.887,2.645l.771,4.406L199,466.042l.288,14.91s9.3,5.488,15.051,4.18C219.642,482.515,218.753,478.137,218.753,478.137Z" transform="translate(-179.872 -355.898)" fill="#fcae88"/>
    <path id="Path_7034" data-name="Path 7034" d="M185.841,477.277s-3.244-1.337-4.126-.689c-.55.4-.527,2.139-.17,2.717.6.974,4.676,2.1,4.676,2.1Z" transform="translate(-166.713 -367.128)" fill="#fcae88"/>
    <path id="Path_7035" data-name="Path 7035" d="M186.517,493.5s-3.247-1.337-4.128-.689c-.548.4-.527,2.139-.167,2.717.6.974,4.655,1.709,4.655,1.709Z" transform="translate(-167.214 -379.178)" fill="#fcae88"/>
    <path id="Path_7036" data-name="Path 7036" d="M189.7,509.605s-2.925-1.206-3.72-.62c-.494.362-.473,1.928-.152,2.45.542.877,4.2,1.542,4.2,1.542Z" transform="translate(-169.915 -391.209)" fill="#fcae88"/>
    <path id="Path_7037" data-name="Path 7037" d="M192.135,523.531s-2.928-1.206-3.722-.622c-.494.365-.473,1.928-.149,2.45.542.877,4.2,1.542,4.2,1.542Z" transform="translate(-171.722 -401.555)" fill="#fcae88"/>
    <path id="Path_7038" data-name="Path 7038" d="M259.91,554.87c43.156,32.583,54.667,27.912,55.166,20.565C298.9,579.178,263.663,557.243,259.91,554.87Z" transform="translate(-225.124 -425.418)" fill="#bd8366" opacity="0.34"/>
    <g id="smoke" transform="translate(2.388 53.24)" opacity="0.56">
      <path id="Path_7039" data-name="Path 7039" d="M151.342,299.375s9.275-22.074,9.126-33.194c-.108-7.915-.823-10.668-6.979-4.113-5.457,5.82-9.385,31.1-19.609,27.925,5.429,7.812,13.228-10.869,15.228-13.82C161.931,257.253,151.342,299.375,151.342,299.375Z" transform="translate(-133.88 -258.399)" fill="#f1f2f2"/>
    </g>
    <path id="Path_7040" data-name="Path 7040" d="M351.013,288.487S278.76,359.146,325.535,401.3c10.282,13.367,28.331,26.768,38.323,23.411s13.583-32.151,22.323-39.863,31.362,35.331,22.622-24.75S374.956,250.732,351.013,288.487Z" transform="translate(-262.172 -217.707)" fill="#eb6841"/>
    <path id="Path_7041" data-name="Path 7041" d="M418.655,352.472c-5.332,2.278-16.025-12.3-21.424-7.542-8.74,7.712-12.339,36.5-22.331,39.86s-28.053-10.041-38.315-23.408a47.848,47.848,0,0,1-11.935-16.025c10.223-30.29,37.413-56.878,37.413-56.878C384.985,252.329,408.982,295.968,418.655,352.472Z" transform="translate(-273.222 -217.699)" fill="#ef8667" opacity="0.51"/>
    <path id="Path_7042" data-name="Path 7042" d="M445.008,315.268c-4.691,1.105-13.462-10.568-17.958-6.6-7.5,6.617-10.583,31.313-19.154,34.189s-24.066-8.614-32.876-20.082q-1.4-1.257-2.63-2.555a191.729,191.729,0,0,1,25.141-31.742C415.006,260.922,433.105,279.734,445.008,315.268Z" transform="translate(-308.69 -217.699)" fill="#ef8667" opacity="0.51"/>
    <path id="Path_7043" data-name="Path 7043" d="M370.455,417.915c-1.91,3.411-4.049,5.938-6.607,6.794-9.995,3.357-28.064-10.041-38.325-23.408C278.738,359.142,351,288.484,351,288.484c7.514-11.851,15.146-15.126,22.349-12.185-8.534.344-15.694,8.982-20.508,15.874s-9,14.172-14.7,20.457c-5.157,5.673-9.354,11.462-11.311,18.974-2.149,8.226-5.763,16.056-7.537,24.313-4.3,20.051,3.375,44.431,20.326,56.649,5.807,4.188,13,9.013,20.382,9.365A14.431,14.431,0,0,0,370.455,417.915Z" transform="translate(-262.16 -217.704)" fill="#b04e31"/>
    <g id="thermometer" transform="translate(39.096 59.366)">
      <path id="Path_7044" data-name="Path 7044" d="M296.446,309.025a1.929,1.929,0,0,0,.717-2.542h0a1.927,1.927,0,0,0-2.632-.221l-16.966,10.876a2.276,2.276,0,0,0-.406,3.213h0a2.276,2.276,0,0,0,3.152.748Z" transform="translate(-276.677 -299.783)" fill="#e6e7e8"/>
      <path id="Path_7045" data-name="Path 7045" d="M342.714,291.644l.062-.046,9.092-6.735,1.144-.848c.771-.576,1.218-1.3.995-1.62-.113-.162-.378-.2-.715-.139a3.421,3.421,0,0,0-1.154.5l-1.2.771-9.5,6.152c-.81.514-1.172,1.411-.789,1.967S341.948,292.174,342.714,291.644Z" transform="translate(-324.097 -282.227)" fill="#e6e7e8"/>
      <path id="Path_7046" data-name="Path 7046" d="M382.035,284.863l1.144-.848c.771-.576,1.218-1.3.995-1.619-.113-.162-.378-.2-.715-.139a3.421,3.421,0,0,0-1.154.5l-1.2.771Z" transform="translate(-354.264 -282.227)" fill="#fff"/>
      <path id="Path_7047" data-name="Path 7047" d="M293.93,334.987a1.167,1.167,0,0,0,.3-1.627h0a1.167,1.167,0,0,0-1.625-.293l-6.152,4.262a1.17,1.17,0,0,0-.293,1.627h0a1.167,1.167,0,0,0,1.625.293Z" transform="translate(-283.564 -319.843)" fill="#bcbec0"/>
      <rect id="Rectangle_417" data-name="Rectangle 417" width="2.589" height="1.424" transform="translate(6.897 15.246) rotate(-34.77)" fill="#be1e2d"/>
    </g>
  </g>
  <path id="Path_7048" data-name="Path 7048" d="M230,130.932a33.111,33.111,0,0,1-4.157-7.858c-.825-2.673-.915-5.756-2.517-8.239l.866-.555c1.676,2.6,1.8,5.75,2.632,8.483a31.987,31.987,0,0,0,4.041,7.6Z" transform="translate(-187.535 -98.087)" fill="#cc333f"/>
  <path id="Path_7049" data-name="Path 7049" d="M241.651,126.135a33.033,33.033,0,0,1-4.157-7.861c-.825-2.673-.915-5.753-2.514-8.226l.864-.558c1.676,2.6,1.787,5.75,2.632,8.483a32.086,32.086,0,0,0,4.038,7.606Z" transform="translate(-196.19 -94.529)" fill="#cc333f"/>
  <path id="Path_7050" data-name="Path 7050" d="M253.283,121.32a33.018,33.018,0,0,1-4.157-7.858c-.825-2.673-.915-5.756-2.517-8.226l.866-.555c1.676,2.6,1.8,5.75,2.632,8.483a32.135,32.135,0,0,0,4.038,7.606Z" transform="translate(-204.83 -90.955)" fill="#cc333f"/>
  <path id="Path_7051" data-name="Path 7051" d="M537.81,206.445a33.04,33.04,0,0,1,2.481-8.537c1.27-2.493,3.342-4.771,3.925-7.668l1.008.2c-.6,3.036-2.717,5.375-4.015,7.93a32.609,32.609,0,0,0-2.391,8.275Z" transform="translate(-421.174 -154.521)" fill="#cc333f"/>
  <path id="Path_7052" data-name="Path 7052" d="M549.53,211.085a32.959,32.959,0,0,1,2.481-8.54c1.267-2.493,3.342-4.768,3.925-7.666l1.008.2c-.607,3.036-2.717,5.375-4.015,7.93a32.529,32.529,0,0,0-2.391,8.275Z" transform="translate(-429.881 -157.968)" fill="#cc333f"/>
  <path id="Path_7053" data-name="Path 7053" d="M561.25,215.715a32.986,32.986,0,0,1,2.481-8.54c1.267-2.493,3.342-4.768,3.925-7.666l1.008.2c-.607,3.036-2.717,5.375-4.018,7.93a32.534,32.534,0,0,0-2.388,8.275Z" transform="translate(-438.588 -161.408)" fill="#cc333f"/>
</svg>
